<?xml version="1.0"?>
<svg xmlns="http://www.w3.org/2000/svg" width="512" height="512" viewBox="0 0 128 128"><g><path d="M119.008,128H8.992a1.749,1.749,0,0,1-1.75-1.75V117a5.756,5.756,0,0,1,5.75-5.75H119.008a1.749,1.749,0,0,1,1.75,1.75v13.25A1.749,1.749,0,0,1,119.008,128ZM10.742,124.5H117.258v-9.75H12.992a2.253,2.253,0,0,0-2.25,2.25Z"/><path d="M111.175,114.75H16.825a1.749,1.749,0,0,1-1.75-1.75v-9.25A5.756,5.756,0,0,1,20.825,98h86.35a5.756,5.756,0,0,1,5.75,5.75V113A1.749,1.749,0,0,1,111.175,114.75Zm-92.6-3.5h90.85v-7.5a2.253,2.253,0,0,0-2.25-2.25H20.825a2.253,2.253,0,0,0-2.25,2.25Z"/><path d="M101.587,101.5H26.413a1.749,1.749,0,0,1-1.75-1.75v-78A21.775,21.775,0,0,1,46.413,0H81.587a21.775,21.775,0,0,1,21.75,21.75v78A1.749,1.749,0,0,1,101.587,101.5ZM28.163,98H99.837V21.75A18.271,18.271,0,0,0,81.587,3.5H46.413a18.271,18.271,0,0,0-18.25,18.25Z"/><path d="M68,74.586H60a1.749,1.749,0,0,1-1.75-1.75V49.921H48.383a1.749,1.749,0,0,1-1.75-1.75v-8a1.749,1.749,0,0,1,1.75-1.75H58.25V28.664A1.749,1.749,0,0,1,60,26.914h8a1.749,1.749,0,0,1,1.75,1.75v9.757h9.867a1.749,1.749,0,0,1,1.75,1.75v8a1.749,1.749,0,0,1-1.75,1.75H69.75V72.836A1.749,1.749,0,0,1,68,74.586Zm-6.25-3.5h4.5V48.171A1.749,1.749,0,0,1,68,46.421h9.867v-4.5H68a1.749,1.749,0,0,1-1.75-1.75V30.414h-4.5v9.757A1.749,1.749,0,0,1,60,41.921H50.133v4.5H60a1.749,1.749,0,0,1,1.75,1.75Z"/><path d="M83.089,91.5H44.911a1.749,1.749,0,0,1-1.75-1.75A6.755,6.755,0,0,0,36.413,83a1.749,1.749,0,0,1-1.75-1.75V21.75A11.764,11.764,0,0,1,46.413,10H81.587a11.764,11.764,0,0,1,11.75,11.75v59.5A1.749,1.749,0,0,1,91.587,83a6.755,6.755,0,0,0-6.748,6.748A1.749,1.749,0,0,1,83.089,91.5ZM46.512,88H81.488a10.276,10.276,0,0,1,8.349-8.349V21.75a8.259,8.259,0,0,0-8.25-8.25H46.413a8.259,8.259,0,0,0-8.25,8.25v57.9A10.276,10.276,0,0,1,46.512,88Z"/></g></svg>
