<?xml version="1.0" encoding="UTF-8" standalone="no"?><!DOCTYPE svg PUBLIC "-//W3C//DTD SVG 1.1//EN" "http://www.w3.org/Graphics/SVG/1.1/DTD/svg11.dtd"><svg width="100%" height="100%" viewBox="0 0 120 60" version="1.1" xmlns="http://www.w3.org/2000/svg" xmlns:xlink="http://www.w3.org/1999/xlink" xml:space="preserve" style="fill-rule:evenodd;clip-rule:evenodd;stroke-linecap:round;stroke-linejoin:round;stroke-miterlimit:1.5;"><path d="M15.355,8.444l97.721,0l-0.172,7.942l-97.549,0l0,-7.942Z" style="fill:none;stroke:#000;stroke-width:1.54px;"/><circle cx="22.742" cy="12.287" r="1.079" style="fill:#050000;"/><circle cx="101.052" cy="12.287" r="1.079" style="fill:#050000;"/><circle cx="26.935" cy="12.287" r="1.079" style="fill:#050000;"/><circle cx="105.245" cy="12.287" r="1.079" style="fill:#050000;"/><circle cx="30.881" cy="12.287" r="1.079" style="fill:#050000;"/><circle cx="109.192" cy="12.287" r="1.079" style="fill:#050000;"/><path d="M63.196,31.1c3.424,-6.506 10.272,-6.506 13.696,-3.253c3.424,3.253 3.424,9.758 0,16.263c-2.397,4.879 -8.56,9.758 -13.696,13.011c-5.136,-3.253 -11.298,-8.132 -13.695,-13.011c-3.424,-6.505 -3.424,-13.01 0,-16.263c3.424,-3.253 10.271,-3.253 13.695,3.253Z" style="fill:none;stroke:#000;stroke-width:0.96px;"/><path d="M65.139,18.552c0,-0.489 -0.397,-0.886 -0.886,-0.886l-1.773,0c-0.489,0 -0.886,0.397 -0.886,0.886l0,4.925c0,0.49 0.397,0.887 0.886,0.887l1.773,0c0.489,0 0.886,-0.397 0.886,-0.887l0,-4.925Z" style="fill:none;stroke:#050000;stroke-width:0.96px;"/><path d="M68.141,15.913c-0.428,2.344 -2.484,4.06 -4.939,4.06c-2.454,0 -4.511,-1.716 -4.939,-4.06l9.878,0Z" style="fill:none;stroke:#000;stroke-width:0.96px;"/><path d="M58.137,26.432c0.318,-2.441 2.438,-4.292 4.986,-4.292c2.596,0 4.746,1.92 5.019,4.455c-1.848,0.795 -3.544,2.299 -4.788,4.663c-1.337,-2.542 -3.197,-4.09 -5.217,-4.826Z" style="fill:none;stroke:#000;stroke-width:0.96px;"/></svg>