<?xml version="1.0" encoding="UTF-8" standalone="no"?><!DOCTYPE svg PUBLIC "-//W3C//DTD SVG 1.1//EN" "http://www.w3.org/Graphics/SVG/1.1/DTD/svg11.dtd"><svg width="100%" height="100%" viewBox="0 0 120 80" version="1.1" xmlns="http://www.w3.org/2000/svg" xmlns:xlink="http://www.w3.org/1999/xlink" xml:space="preserve" style="fill-rule:evenodd;clip-rule:evenodd;stroke-linecap:round;stroke-linejoin:round;stroke-miterlimit:1.5;"><circle cx="38.523" cy="16.383" r="5.276" style="fill:#fff;stroke:#000;stroke-width:0.8px;"/><circle cx="73.707" cy="15.903" r="5.276" style="fill:#fff;stroke:#000;stroke-width:0.8px;"/><path d="M42.641,28.464c0,0 -9.87,-2.401 -11.738,10.404c-1.867,12.805 9.871,27.21 -9.604,30.678" style="fill:none;stroke:#000;stroke-width:0.8px;"/><path d="M70.499,29.264c0,0 9.871,-2.401 11.738,10.404c1.868,12.805 -9.87,27.211 9.604,30.679" style="fill:none;stroke:#000;stroke-width:0.8px;"/><path d="M47.09,45.364c0,0 10.327,17.392 -10.174,29.513" style="fill:none;stroke:#000;stroke-width:0.8px;"/><path d="M66.05,46.165c0,0 -10.327,17.392 10.174,29.512" style="fill:none;stroke:#000;stroke-width:0.8px;"/><path d="M47.379,32.664c0,0 5.6,-3.961 15.708,-0.41c0,0 -7.786,15.98 -15.708,0.41Z" style="stroke:#000;stroke-width:0.37px;"/></svg>