<?xml version="1.0" encoding="UTF-8" standalone="no"?><!DOCTYPE svg PUBLIC "-//W3C//DTD SVG 1.1//EN" "http://www.w3.org/Graphics/SVG/1.1/DTD/svg11.dtd"><svg width="100%" height="100%" viewBox="0 0 60 60" version="1.1" xmlns="http://www.w3.org/2000/svg" xmlns:xlink="http://www.w3.org/1999/xlink" xml:space="preserve" style="fill-rule:evenodd;clip-rule:evenodd;stroke-linecap:round;stroke-linejoin:round;stroke-miterlimit:1.5;"><path d="M14.954,33.964c0,0 4.504,-0.84 7.863,-8.474c0,0 0.229,-5.268 -6.031,-9.085c0,0 1.604,-4.504 -4.809,-5.955c0,0 -1.603,-0.152 0.458,2.52c0,0 1.298,2.137 -1.069,6.489c0,0 -4.962,3.359 -7.329,4.58c0,0 -1.603,4.123 1.451,5.878c0,0 4.657,-0.152 5.649,0.229c0.993,0.382 1.832,1.985 3.817,3.818Zm-2.017,-13.079c0.869,0 1.575,0.834 1.575,1.861c0,1.027 -0.706,1.861 -1.575,1.861c-0.869,0 -1.574,-0.834 -1.574,-1.861c0,-1.027 0.705,-1.861 1.574,-1.861Z" style="fill:#fff;stroke:#000;stroke-width:0.69px;"/><path d="M6.365,51.167c0,0 17.025,-18.169 19.468,-22.902c0,0 1.908,0.687 5.42,-0.077c3.512,-0.763 5.878,-5.725 11.757,-4.733c0,0 2.137,1.298 2.595,0.916c0.458,-0.381 7.405,-5.42 8.932,-11.527c0,0 2.748,-3.13 3.359,1.985c0,0 -3.588,9.771 -8.55,11.985c0,0 2.726,3.523 3.214,10.364l2.016,15.085c0,0 -2.016,3.237 -4.398,-0.794l-0.977,-11.238c0,0 -0.488,-0.488 -0.672,0.367c-0.183,0.855 -2.015,12.275 -2.443,13.008c-0.427,0.733 -3.481,1.527 -4.641,-1.954c0,0 1.71,-8.672 1.038,-12.459c0,0 -8.245,8.428 -11.787,8.55c0,0 -3.97,0.916 -8.123,-2.687l-13.436,10.26c0,0 -4.165,0.821 -2.772,-4.149" style="fill:#fff;stroke:#000;stroke-width:0.69px;"/></svg>