<?xml version="1.0" encoding="UTF-8" standalone="no"?><!DOCTYPE svg PUBLIC "-//W3C//DTD SVG 1.1//EN" "http://www.w3.org/Graphics/SVG/1.1/DTD/svg11.dtd"><svg width="100%" height="100%" viewBox="0 0 60 60" version="1.1" xmlns="http://www.w3.org/2000/svg" xmlns:xlink="http://www.w3.org/1999/xlink" xml:space="preserve" style="fill-rule:evenodd;clip-rule:evenodd;stroke-linecap:round;stroke-linejoin:round;stroke-miterlimit:1.5;"><path d="M43.348,31.692c1.276,0.174 2.714,0.12 4.314,-0.292c0,0 2.736,0.049 2.491,-4.642c0,0 -0.537,-0.684 2.346,-2.003c0,0 -1.515,-1.515 -1.955,-3.371c-0.44,-1.857 -1.417,-5.814 -2.345,-6.596c-0.928,-0.782 -8.111,-4.349 -12.557,1.124c0,0 -2.443,3.908 0.293,11.042c0,0 0.383,0.623 1.144,1.422l-1.806,3.422c-8.44,0.576 -5.645,10.238 -5.64,10.253l19.69,0c0.263,-4.666 -3.072,-7.223 -6.544,-8.617l0.569,-1.742Zm-6.137,-3.179c0.695,0.707 1.673,1.527 2.931,2.169c-1.148,-0.416 -2.303,-1.087 -2.931,-2.169Z" style="fill:#1d1d1d;stroke:#000;stroke-width:0.83px;"/><path d="M28.64,27.269c-0.246,-0.351 -0.456,-0.736 -0.618,-1.16c-0.125,-0.327 -0.268,-0.698 -0.415,-1.101c-0.062,-0.022 -0.104,-0.066 -0.121,-0.134c-0.02,-0.079 -0.047,-0.226 -0.078,-0.424c-0.998,-2.882 -1.969,-7.052 0.744,-9.674c0.059,-0.145 0.118,-0.281 0.178,-0.408c0.782,-1.658 3.408,-1.658 5.41,-1.908c0.638,-0.079 1.336,-0.092 2.023,-0.118l0.03,-0.001l0.011,0c1.453,-0.055 2.847,-0.172 3.502,-1.1c0.423,-0.601 0.906,-0.904 1.316,-1.054c0.035,-0.05 0.069,-0.1 0.103,-0.152c0.71,-1.078 2.708,0.504 3.412,2.295c1.934,2.634 -1.82,3.486 -2.644,3.637c0.129,0.455 0.572,2.169 0.539,4.207l1.993,4.065c0,0 -1.837,1.368 -1.993,1.329c-0.157,-0.039 1.485,5.785 -3.753,5.59l-3.026,-0.456c0,0 -0.012,-0.001 -0.037,-0.004l-0.574,1.948c3.195,0.997 5.626,3.269 6.37,8.53l-20.007,0l0,0.001l0.063,0.381c0,0 -0.027,-0.138 -0.063,-0.381l0,-0.001l0,0c-0.266,-1.81 -1.031,-9.436 5.025,-9.352c0.674,0.01 1.348,0.016 2.015,0.03l-1.225,-0.831l1.82,-3.754Zm2.005,1.837c1.169,0.924 2.759,1.785 4.477,1.579c-0.54,-0.078 -2.641,-0.439 -4.477,-1.579Z" style="fill:#fff;stroke:#000;stroke-width:0.83px;"/><path d="M26.858,32.303c1.276,0.174 2.714,0.12 4.314,-0.292c0,0 2.736,0.048 2.491,-4.642c0,0 -0.537,-0.684 2.346,-2.003c0,0 -1.515,-1.515 -1.955,-3.372c-0.439,-1.856 -1.417,-5.814 -2.345,-6.595c-0.928,-0.782 -8.11,-4.349 -12.557,1.123c0,0 -2.442,3.909 0.294,11.042c0,0 0.382,0.624 1.143,1.423l-1.806,3.422c-8.44,0.576 -5.645,10.237 -5.64,10.253l19.69,0c0.263,-4.667 -3.072,-7.223 -6.543,-8.617l0.568,-1.742Zm-6.136,-3.179c0.695,0.707 1.672,1.527 2.93,2.169c-1.148,-0.416 -2.303,-1.088 -2.93,-2.169Z" style="fill:#1d1d1d;stroke:#000;stroke-width:0.83px;"/><path d="M12.151,27.88c-0.246,-0.351 -0.457,-0.736 -0.619,-1.16c-0.125,-0.328 -0.268,-0.698 -0.415,-1.101c-0.062,-0.022 -0.104,-0.067 -0.121,-0.134c-0.02,-0.079 -0.047,-0.226 -0.078,-0.425c-0.998,-2.881 -1.969,-7.051 0.744,-9.674c0.059,-0.144 0.118,-0.281 0.178,-0.407c0.782,-1.658 3.409,-1.658 5.41,-1.908c0.638,-0.08 1.336,-0.093 2.023,-0.118l0.03,-0.001l0.011,-0.001c1.453,-0.054 2.848,-0.171 3.502,-1.099c0.423,-0.601 0.906,-0.904 1.316,-1.054c0.035,-0.05 0.069,-0.101 0.104,-0.152c0.71,-1.078 2.707,0.504 3.411,2.295c1.934,2.634 -1.82,3.485 -2.644,3.637c0.13,0.455 0.572,2.169 0.539,4.207l1.993,4.065c0,0 -1.837,1.368 -1.993,1.329c-0.156,-0.039 1.485,5.785 -3.752,5.589l-3.027,-0.455c0,0 -0.012,-0.001 -0.037,-0.005l-0.574,1.949c3.195,0.997 5.626,3.269 6.37,8.53l-20.006,0l0,0.001l0.062,0.381c0,0 -0.027,-0.138 -0.062,-0.381l0,-0.001l0,0c-0.267,-1.81 -1.032,-9.436 5.024,-9.352c0.675,0.009 1.348,0.016 2.015,0.029l-1.225,-0.83l1.821,-3.754Zm2.004,1.837c1.169,0.923 2.759,1.785 4.477,1.579c-0.539,-0.078 -2.641,-0.439 -4.477,-1.579Z" style="fill:#fff;stroke:#000;stroke-width:0.83px;"/></svg>