<?xml version="1.0" encoding="iso-8859-1"?>
<!-- Generator: Adobe Illustrator 19.0.0, SVG Export Plug-In . SVG Version: 6.00 Build 0)  -->
<svg xmlns="http://www.w3.org/2000/svg" xmlns:xlink="http://www.w3.org/1999/xlink" version="1.1" id="Layer_1" x="0px" y="0px" viewBox="0 0 511.504 511.504" style="enable-background:new 0 0 511.504 511.504;" xml:space="preserve" width="512" height="512">
<g>
	<path d="M476.629,164.604h-8.181c-19.261,0-34.876,15.614-34.876,34.876v250.581h-56.041c-16.855,0-30.519,13.664-30.519,30.519   v4.823c0,5.855,4.746,10.601,10.601,10.601h138.888c8.286,0,15.002-6.717,15.002-15.002V199.48   C511.504,180.218,495.89,164.604,476.629,164.604z"/>
	<circle cx="251.929" cy="56.141" r="40.642"/>
	<path d="M365.829,159.004c-1.988-8.876-10.073-14.789-18.86-14.355c0-8.206,0-15.547,0-23.791   c9.249-2.956,15.947-11.617,15.947-21.846V74.074c0-2.465-2.815-3.873-4.787-2.394l-16.351,12.263   c-1.064,0.798-2.527,0.798-3.591,0L321.835,71.68c-1.972-1.479-4.787-0.072-4.787,2.394v24.939c0,10.229,6.698,18.89,15.946,21.846   c0,8.862,0,16.952,0,26.625l-51.328,11.494l-41.199-39.469l36.521,20.64l-3.961-21.649c-0.857-4.685-2.874-8.851-5.674-12.204   c-4.879,1.503-10.058,2.317-15.423,2.317c-11.956,0-22.985-4.028-31.818-10.787c-3.496,0-7.204,0-11.292,0   c-11.332,0-21.035,8.649-23.235,20.675L164.55,233.46c-2.483-0.328-5.087,0.071-7.476,1.321l-38.612,20.198L95.544,242.39   c-6.64,1.956-13.645,2.418-20.773,1.183c-10.153-1.758-19.553-6.92-26.615-14.969c-11.388,4.85-20.016,15.173-22.316,27.993   L4.578,375.129c-0.849,4.64,2.458,8.906,6.757,8.906c3.778,0,8.642,0,14.183,0V412.5L1.138,473.97   c-3.277,8.263,0.765,17.619,9.028,20.897c8.278,3.283,17.624-0.78,20.896-9.028l25.513-64.329c0.749-1.889,1.134-3.902,1.134-5.934   v-31.54c2.649,0,5.301,0,7.936,0l12.601,28.647l18.066,71.181c2.19,8.628,10.955,13.826,19.562,11.641   c8.617-2.187,13.828-10.945,11.642-19.561l-18.396-72.478c-0.219-0.863-0.509-1.706-0.868-2.521l-7.438-16.91   c2.35,0,4.493,0,6.362,0c4.343,0,7.601-4.297,6.757-8.906l-4.103-22.424c-7.014,2.323-14.997,1.426-21.524-3.124   c-6.387-4.452-34.279-23.896-45.335-31.603c-5.786-4.034-8.116-11.193-6.336-17.625l12.683-45.507L48.3,300.611   c-0.094,4.218,1.93,8.202,5.391,10.615l41.289,28.782c5.695,3.97,13.551,2.59,17.538-3.13c3.979-5.708,2.577-13.56-3.13-17.539   L73.64,294.42l0.868-39.015l7.004,30.279l18.402,12.828l-5.08-27.766l17.417,9.567c3.649,2.004,8.117,2.103,11.904,0.121   l35.165-18.395l-9.952,54.392c-1.241,6.784,3.595,13.021,9.879,13.021c5.247,0,11.913,0,19.512,0v48.041l-21.198,89.553   c-2.994,12.646,4.831,25.326,17.478,28.32c12.65,2.995,25.327-4.837,28.319-17.478l21.832-92.226   c0.421-1.777,0.633-3.595,0.633-5.421v-50.788c2.729,0,5.462,0,8.189,0l12.533,47.312l4.119,96.709   c0.553,12.982,11.528,23.066,24.513,22.509c12.984-0.553,23.062-11.528,22.509-24.512l-4.229-99.263   c-0.072-1.697-0.329-3.382-0.763-5.024l-9.995-37.731c6.42,0,12.087,0,16.665,0c6.348,0,11.112-6.282,9.879-13.021L290.19,212.297   c-4.659,1.043-8.604,1.927-13.421,3.005c-10.063,2.253-20.081-2.306-25.256-10.578l-36.527-58.618l48.328,46.3   c4.454,4.267,10.746,6.021,16.766,4.673l52.915-11.849c0,11.93,0,21.913,0,33.666c0,3.859,3.128,6.988,6.987,6.988   s6.987-3.128,6.987-6.988c0-13.065,0-23.962,0-36.795l4.913-1.1C361.808,178.778,368.052,168.93,365.829,159.004z"/>
	<circle cx="82.614" cy="198.412" r="34.019"/>
</g>















</svg>
