<?xml version="1.0" encoding="UTF-8" standalone="no"?><!DOCTYPE svg PUBLIC "-//W3C//DTD SVG 1.1//EN" "http://www.w3.org/Graphics/SVG/1.1/DTD/svg11.dtd"><svg width="100%" height="100%" viewBox="0 0 60 60" version="1.1" xmlns="http://www.w3.org/2000/svg" xmlns:xlink="http://www.w3.org/1999/xlink" xml:space="preserve" style="fill-rule:evenodd;clip-rule:evenodd;stroke-linecap:round;stroke-linejoin:round;stroke-miterlimit:1.5;"><g><path d="M29.935,34.9l0,19.265c0,0 1.559,6.008 4.522,0.04l0,-18.544c0,0 0.52,0.32 0.52,1.001c0,0.681 0.052,17.343 0.052,17.343c0,0 1.351,5.888 4.366,0.08l0,-21.068c0,0 1.507,1.082 2.339,0.481c0.832,-0.601 3.638,-8.291 2.755,-11.255c-0.884,-2.964 -4.886,-8.852 -8.941,-9.572c0,0 -4.834,-0.481 -5.301,2.763c-0.468,3.244 -0.312,19.466 -0.312,19.466Z"/><path d="M17.877,32.259c0,0 -4.974,-6.024 -2.436,-10.796c2.538,-4.771 3.553,-8.135 7.715,-9.7c0,0 2.815,-0.238 4.346,1.069c0,0 4.358,2.999 9.447,0.256c0,0 1.83,-2.666 3.36,0.128c0,0 1.63,6.563 -10.545,5.204l-0.034,12.279c0,0 -0.232,0.205 -0.232,0.897c0,0.692 0,12.355 0,12.355c0,0 0.299,1.461 -4.857,4.742l0,5.665c0,0 -0.932,1.872 -2.529,1.795c0,0 -1.962,-0.564 -1.962,-1.974l-0.133,-1.999l-2.362,1.717c0,0 -3.859,0.385 -2.695,-3.742l5.09,-4.307l0,-13.483c0,0 -1.352,0.839 -2.173,-0.106" style="stroke:#fff;stroke-width:0.28px;"/><ellipse cx="25.462" cy="7.971" rx="4.304" ry="3.317" style="stroke:#fff;stroke-width:0.28px;"/><ellipse cx="35.299" cy="7.943" rx="4.304" ry="3.317" style="stroke:#fff;stroke-width:0.28px;"/></g></svg>