<?xml version="1.0" encoding="iso-8859-1"?>
<!-- Generator: Adobe Illustrator 21.0.0, SVG Export Plug-In . SVG Version: 6.00 Build 0)  -->
<svg xmlns="http://www.w3.org/2000/svg" xmlns:xlink="http://www.w3.org/1999/xlink" version="1.1" id="Capa_1" x="0px" y="0px" viewBox="0 0 512 512" style="enable-background:new 0 0 512 512;" xml:space="preserve" width="512" height="512">
<g>
	<g>
		<path d="M22.5,279.5h467c12.407,0,22.5-10.093,22.5-22.5s-10.093-22.5-22.5-22.5h-58.955l8.293-152.924    c0.234-4.295-3.191-7.906-7.489-7.906h-22.358c0.005-0.173,0.008-0.346,0.008-0.52c0-10.256-8.916-18.698-21.485-21.461    c3.398-5.337,5.31-11.169,5.31-16.587c0-5.464-1.855-10.198-5.366-13.69c-7.276-7.238-19.574-6.919-30.422-0.019    C354.262,8.877,345.79,0,335.5,0c-10.29,0-18.762,8.877-21.536,21.392c-10.848-6.901-23.146-7.22-30.422,0.018    c-3.51,3.492-5.366,8.226-5.366,13.69c0,5.418,1.911,11.25,5.31,16.587C270.916,54.452,262,62.894,262,73.15    c0,0.174,0.003,0.347,0.008,0.52h-12.016c0.005-0.173,0.008-0.346,0.008-0.52c0-10.256-8.916-18.698-21.485-21.461    c3.398-5.337,5.31-11.169,5.31-16.587c0-5.464-1.855-10.198-5.366-13.69c-7.276-7.238-19.574-6.919-30.422-0.019    C195.262,8.877,186.79,0,176.5,0c-10.29,0-18.762,8.876-21.536,21.392c-10.847-6.901-23.145-7.22-30.422,0.019    c-3.51,3.492-5.366,8.226-5.366,13.69c0,5.418,1.911,11.25,5.31,16.587C111.916,54.452,103,62.894,103,73.15    c0,0.174,0.003,0.347,0.008,0.52H80.65c-4.303,0-7.722,3.615-7.489,7.906l2.554,47.091c0.224,4.136,3.74,7.325,7.895,7.083    c4.136-0.224,7.307-3.759,7.083-7.895l-2.125-39.185c99.281,0,235.434,0,334.865,0L415.523,234.5H96.477l-4.049-74.646    c-0.224-4.136-3.746-7.315-7.895-7.083c-4.136,0.224-7.307,3.759-7.083,7.895l4.004,73.833H22.5C10.093,234.5,0,244.593,0,257    S10.093,279.5,22.5,279.5z M394,73.15c0,0.175-0.022,0.348-0.06,0.52H363.06c-0.039-0.171-0.06-0.345-0.06-0.52    c0-2.954,6.182-7.42,15.5-7.42S394,70.196,394,73.15z M322.114,67.657c1.657-0.829,3.182-1.913,4.533-3.257    c1.347-1.34,2.451-2.864,3.299-4.541c1.771,0.586,3.631,0.896,5.554,0.896s3.783-0.311,5.554-0.896    c0.848,1.677,1.952,3.2,3.299,4.541c1.352,1.344,2.877,2.428,4.533,3.258C348.307,69.41,348,71.249,348,73.15    c0,0.174,0.003,0.347,0.008,0.52h-25.016c0.005-0.173,0.008-0.346,0.008-0.52C323,71.249,322.693,69.409,322.114,67.657z     M373.767,31.092c1.399,0,2.491,0.335,3.112,0.954c0.781,0.776,0.945,2.09,0.945,3.056c0,3.128-1.734,8.196-6.601,13.037    c-6.598,6.562-14.176,7.733-16.292,5.627c-0.78-0.776-0.944-2.09-0.944-3.055c0-3.128,1.734-8.196,6.601-13.038    C365.249,33.037,370.399,31.092,373.767,31.092z M335.5,15c2.986,0,7.5,6.133,7.5,15.378s-4.514,15.378-7.5,15.378    s-7.5-6.133-7.5-15.378S332.514,15,335.5,15z M294.12,32.045c0.622-0.618,1.713-0.954,3.113-0.954    c3.368,0,8.519,1.945,13.179,6.581c4.867,4.841,6.601,9.909,6.601,13.038c0,0.965-0.164,2.279-0.944,3.055    c-2.117,2.105-9.694,0.936-16.292-5.627c-4.867-4.841-6.601-9.909-6.601-13.037C293.176,34.136,293.34,32.822,294.12,32.045z     M277,73.15c0-2.954,6.182-7.42,15.5-7.42s15.5,4.466,15.5,7.42c0,0.175-0.022,0.348-0.06,0.52H277.06    C277.022,73.498,277,73.325,277,73.15z M235,73.15c0,0.175-0.022,0.348-0.06,0.52H204.06c-0.039-0.171-0.06-0.345-0.06-0.52    c0-2.954,6.182-7.42,15.5-7.42S235,70.196,235,73.15z M163.114,67.657c1.657-0.829,3.182-1.913,4.533-3.257    c1.347-1.34,2.451-2.864,3.299-4.541c1.771,0.586,3.631,0.896,5.554,0.896s3.783-0.311,5.554-0.896    c0.848,1.677,1.952,3.2,3.299,4.541c1.352,1.344,2.877,2.428,4.533,3.258C189.307,69.41,189,71.249,189,73.15    c0,0.174,0.003,0.347,0.008,0.52h-25.016c0.005-0.173,0.008-0.346,0.008-0.52C164,71.249,163.693,69.409,163.114,67.657z     M214.767,31.092c1.399,0,2.491,0.335,3.112,0.954c0.781,0.776,0.945,2.09,0.945,3.056c0,3.128-1.734,8.196-6.601,13.037    c-6.598,6.562-14.174,7.733-16.292,5.627c-0.78-0.776-0.944-2.09-0.944-3.055c0-3.128,1.734-8.196,6.601-13.038    C206.249,33.037,211.399,31.092,214.767,31.092z M176.5,15c2.986,0,7.5,6.133,7.5,15.378s-4.514,15.378-7.5,15.378    s-7.5-6.133-7.5-15.378S173.514,15,176.5,15z M135.12,32.045c0.622-0.618,1.713-0.954,3.113-0.954    c3.368,0,8.519,1.945,13.179,6.581c4.867,4.841,6.601,9.909,6.601,13.038c0,0.965-0.164,2.279-0.944,3.055    c-2.118,2.105-9.694,0.936-16.292-5.627c-4.867-4.841-6.601-9.909-6.601-13.037C134.176,34.136,134.34,32.822,135.12,32.045z     M118,73.15c0-2.954,6.182-7.42,15.5-7.42s15.5,4.466,15.5,7.42c0,0.175-0.022,0.348-0.06,0.52H118.06    C118.022,73.498,118,73.325,118,73.15z M22.5,249.5h467c4.136,0,7.5,3.364,7.5,7.5s-3.364,7.5-7.5,7.5h-467    c-4.136,0-7.5-3.364-7.5-7.5S18.364,249.5,22.5,249.5z"/>
		<path d="M359.625,111.169c0-4.142-3.358-7.5-7.5-7.5H112.321c-2.06,0-4.029,0.847-5.445,2.342    c-1.417,1.495-2.156,3.507-2.044,5.564l5.468,100.831c0.215,3.979,3.504,7.094,7.489,7.094h276.422    c3.984,0,7.273-3.115,7.489-7.094l5.468-100.831c0.234-4.295-3.191-7.906-7.489-7.906H384c-4.142,0-7.5,3.358-7.5,7.5    s3.358,7.5,7.5,7.5h7.761l-4.655,85.831H124.894l-4.655-85.831h231.886C356.267,118.669,359.625,115.312,359.625,111.169z"/>
		<path d="M334.55,135.5c-9.778,0-18.119,6.27-21.215,15h-114.67c-3.095-8.73-11.436-15-21.215-15c-12.407,0-22.5,10.093-22.5,22.5    s10.093,22.5,22.5,22.5c9.778,0,18.119-6.27,21.215-15h114.67c3.095,8.73,11.436,15,21.215,15c12.407,0,22.5-10.093,22.5-22.5    S346.957,135.5,334.55,135.5z M177.45,165.5c-4.136,0-7.5-3.364-7.5-7.5s3.364-7.5,7.5-7.5s7.5,3.364,7.5,7.5    S181.586,165.5,177.45,165.5z M334.55,165.5c-4.136,0-7.5-3.364-7.5-7.5s3.364-7.5,7.5-7.5s7.5,3.364,7.5,7.5    S338.686,165.5,334.55,165.5z"/>
		<path d="M127.5,357h-15.013c4.717-6.271,7.515-14.063,7.515-22.496c0-20.678-16.822-37.5-37.5-37.5s-37.5,16.822-37.5,37.5    c0,8.433,2.799,16.225,7.515,22.496H37.5C16.822,357,0,373.822,0,394.5v109.97c0,4.142,3.358,7.5,7.5,7.5h29.336    c0.22,0.019,0.442,0.03,0.666,0.03h90c0.225,0,0.447-0.01,0.666-0.03H157.5c4.142,0,7.5-3.358,7.5-7.5V394.5    C165,373.822,148.178,357,127.5,357z M60.002,334.504c0-12.407,10.093-22.5,22.5-22.5s22.5,10.093,22.5,22.5    c0,12.274-9.878,22.283-22.102,22.496h-0.797C69.88,356.787,60.002,346.778,60.002,334.504z M30,496.97H15V394.5    c0-9.779,6.271-18.121,15.002-21.216v28.832C30.001,402.181,30,402.245,30,402.31V496.97z M45.002,372.004h75v30.113    c-0.002,0.064-0.002,0.129-0.002,0.194V497H45.002V372.004z M150,496.97h-14.998V373.286C143.732,376.382,150,384.723,150,394.5    V496.97z"/>
		<path d="M474.5,357h-15.013c4.717-6.271,7.515-14.063,7.515-22.496c0-20.678-16.822-37.5-37.5-37.5s-37.5,16.822-37.5,37.5    c0,8.433,2.799,16.225,7.515,22.496H384.5c-20.678,0-37.5,16.822-37.5,37.5v109.97c0,4.142,3.358,7.5,7.5,7.5h29.336    c0.22,0.019,0.442,0.03,0.666,0.03h90c0.225,0,0.447-0.01,0.666-0.03H504.5c4.142,0,7.5-3.358,7.5-7.5V394.5    C512,373.822,495.178,357,474.5,357z M407.002,334.504c0-12.407,10.093-22.5,22.5-22.5s22.5,10.093,22.5,22.5    c0,12.274-9.878,22.283-22.102,22.496h-0.797C416.88,356.787,407.002,346.778,407.002,334.504z M377,496.97h-15V394.5    c0-9.779,6.271-18.121,15.002-21.216v28.832c-0.002,0.064-0.002,0.129-0.002,0.194V496.97z M392.002,372.004h75v30.113    c-0.002,0.064-0.002,0.129-0.002,0.194V497h-74.998V372.004z M497,496.97h-14.998V373.286C490.732,376.382,497,384.723,497,394.5    V496.97z"/>
		<path d="M301,357h-15.013c4.717-6.271,7.515-14.063,7.515-22.496c0-20.678-16.822-37.5-37.5-37.5s-37.5,16.822-37.5,37.5    c0,8.433,2.799,16.225,7.515,22.496H211c-20.678,0-37.5,16.822-37.5,37.5v109.97c0,4.142,3.358,7.5,7.5,7.5h29.336    c0.22,0.019,0.442,0.03,0.666,0.03H256c4.142,0,7.5-3.358,7.5-7.5s-3.358-7.5-7.5-7.5h-37.498V372.004h75v30.113    c-0.002,0.064-0.002,0.129-0.002,0.194V497H288c-4.142,0-7.5,3.358-7.5,7.5s3.358,7.5,7.5,7.5h13.002    c0.225,0,0.447-0.01,0.666-0.03H331c4.142,0,7.5-3.358,7.5-7.5V394.5C338.5,373.822,321.678,357,301,357z M233.502,334.504    c0-12.407,10.093-22.5,22.5-22.5s22.5,10.093,22.5,22.5c0,12.274-9.878,22.283-22.102,22.496h-0.797    C243.38,356.787,233.502,346.778,233.502,334.504z M203.5,496.97h-15V394.5c0-9.779,6.271-18.121,15.002-21.216v28.832    c-0.002,0.064-0.002,0.129-0.002,0.194V496.97z M323.5,496.97h-14.998V373.286c8.729,3.096,14.998,11.437,14.998,21.214V496.97z"/>
	</g>
</g>















</svg>
