<?xml version="1.0" encoding="UTF-8" standalone="no"?><!DOCTYPE svg PUBLIC "-//W3C//DTD SVG 1.1//EN" "http://www.w3.org/Graphics/SVG/1.1/DTD/svg11.dtd"><svg width="100%" height="100%" viewBox="0 0 40 40" version="1.1" xmlns="http://www.w3.org/2000/svg" xmlns:xlink="http://www.w3.org/1999/xlink" xml:space="preserve" style="fill-rule:evenodd;clip-rule:evenodd;stroke-linecap:round;stroke-linejoin:round;stroke-miterlimit:1.5;"><g><path d="M7.795,13.08c0.643,-5.717 5.5,-10.167 11.388,-10.167c5.888,0 10.744,4.45 11.387,10.167l0.03,0l0,0.305c0.028,0.326 0.043,0.655 0.043,0.988c0,0.333 -0.015,0.662 -0.043,0.988l0,20.639l-22.919,0l0,-22.92l0.114,0Z" style="fill:#6e6e6e;"/><path d="M8.869,13.08c0.643,-5.717 5.499,-10.167 11.387,-10.167c5.888,0 10.745,4.45 11.388,10.167l0.03,0l0,0.305c0.028,0.326 0.042,0.655 0.042,0.988c0,0.333 -0.014,0.662 -0.042,0.988l0,20.639l-22.92,0l0,-22.92l0.115,0Z" style="fill:#b0b0b0;"/><path d="M19.478,14.62c1.915,-0.074 3.5,0.622 3.536,1.554c0.036,0.931 -1.49,1.748 -3.406,1.822c-1.916,0.074 -3.5,-0.622 -3.536,-1.554c-0.036,-0.931 1.49,-1.748 3.406,-1.822Z" style="fill:#080000;"/><circle cx="15.878" cy="13.982" r="1.211" style="fill:#080000;"/><circle cx="18.746" cy="12.962" r="1.211" style="fill:#080000;"/><circle cx="22.029" cy="13.344" r="1.211" style="fill:#080000;"/><path d="M11.683,21.657l16.725,0" style="fill:none;stroke:#000;stroke-width:0.2px;"/><path d="M11.6,24.465l16.725,0" style="fill:none;stroke:#000;stroke-width:0.2px;"/><path d="M11.6,26.282l16.725,0" style="fill:none;stroke:#000;stroke-width:0.2px;"/></g></svg>