<?xml version="1.0" encoding="UTF-8" standalone="no"?><!DOCTYPE svg PUBLIC "-//W3C//DTD SVG 1.1//EN" "http://www.w3.org/Graphics/SVG/1.1/DTD/svg11.dtd"><svg width="100%" height="100%" viewBox="0 0 60 60" version="1.1" xmlns="http://www.w3.org/2000/svg" xmlns:xlink="http://www.w3.org/1999/xlink" xml:space="preserve" style="fill-rule:evenodd;clip-rule:evenodd;stroke-linecap:round;stroke-linejoin:round;stroke-miterlimit:1.5;"><path d="M27.737,21.113l-2.28,-1.937c0,0 -0.193,-1.292 1.154,-0.66l1.126,2.597Z" style="stroke:#000;stroke-width:0.28px;"/><path d="M25.307,23.702c0,0 -2.63,0.591 -3.194,0.43c-0.563,-0.161 -0.858,-1.61 0.537,-1.879c1.396,-0.268 2.711,1.342 2.657,1.449Z" style="stroke:#000;stroke-width:0.28px;"/><path d="M25.924,27.298l-1.691,2.362c0,0 -1.314,0.456 -0.751,-0.886c0.564,-1.342 2.201,-1.556 2.442,-1.476Z" style="stroke:#000;stroke-width:0.28px;"/><ellipse cx="30.926" cy="26.849" rx="3.276" ry="4.167" style="stroke:#000;stroke-width:0.28px;"/><ellipse cx="29.065" cy="10.339" rx="4.35" ry="5.739" style="stroke:#000;stroke-width:0.28px;"/><path d="M26.366,32.562c0,0 3.8,-1.966 3.735,1.179c0,0 -2.031,7.076 -1.114,10.745c0,0 2.424,8.713 -0.59,14.479c0,0 -1.769,1.179 -2.293,-1.179c0,0 2.097,-6.945 0.328,-11.138c0,0 -4.98,-0.59 -0.066,-14.086Z" style="stroke:#000;stroke-width:0.28px;"/><path d="M32.729,16.731c0,0 0.615,-7.473 5.733,-1.842c0,0 5.323,17.403 -0.512,19.655c0,0 -2.968,7.575 0.615,20.474c0,0 -1.536,5.425 -4.607,1.023c0,0 -3.071,-12.182 0,-22.828c0,0 1.126,-10.544 -1.229,-16.482Z" style="stroke:#000;stroke-width:0.28px;"/><path d="M34.572,16.731c0,0 1.024,-3.173 2.866,-0.307c0,0 2.556,14.041 -7.01,18.431c0,0 -2.883,-0.721 -0.393,-3.931c0,0 6.388,-2.506 4.537,-14.193Z" style="stroke:#fff;stroke-width:0.28px;"/><path d="M27.074,36.047c0,0 -0.367,-2.778 1.415,-1.677c0,0 1.73,3.826 6.394,0.472c0,0 1.415,-0.105 0.891,2.096c0,0 -4.455,4.56 -8.7,-0.891Z" style="stroke:#fff;stroke-width:0.28px;"/></svg>