<?xml version="1.0" encoding="UTF-8" standalone="no"?><!DOCTYPE svg PUBLIC "-//W3C//DTD SVG 1.1//EN" "http://www.w3.org/Graphics/SVG/1.1/DTD/svg11.dtd"><svg width="100%" height="100%" viewBox="0 0 60 60" version="1.1" xmlns="http://www.w3.org/2000/svg" xmlns:xlink="http://www.w3.org/1999/xlink" xml:space="preserve" style="fill-rule:evenodd;clip-rule:evenodd;stroke-linejoin:round;stroke-miterlimit:1.41421;"><path d="M5.297,46.581l46.95,0c0,0 5.44,-1.527 -0.095,-4.294c0,0 0.591,-1.26 -2.171,-1.199c0,0 -0.264,-9.156 -10.7,-3.214c0,0 -0.43,-3.987 -6.02,-1.759c0,0 -2.658,-2.854 -4.417,-0.235c0,0 -6.058,-4.612 -9.693,1.915c0,0 -3.401,0.118 -2.932,1.838c0,0 -7.231,-1.838 -7.622,4.182c0,0 -4.88,-0.448 -3.3,2.766Z"/><path d="M9.836,43.98c-1.227,-4.908 -3.414,-9.339 -4.39,-14.218c-0.202,-1.013 0,-2.303 0,-3.34c0,-2.316 -0.084,-4.648 0.287,-6.871c0.227,-1.365 1.431,-2.805 1.431,-4.199" style="fill:none;"/><path d="M15.435,10.455l0.091,0.002l0.092,0.003l0.175,0.008l0.173,0.01l0.168,0.011l0.319,0.023l0.149,0.009l0.143,0.008l0.064,0.002l0.064,0.002l0.062,0.002l0.042,0l0.001,0l0.036,-0.003l0.163,-0.015l0.219,-0.019l0.127,-0.01l0.131,-0.009l0.137,-0.007l0.135,-0.005l0.073,-0.001l0.071,0l0.073,0.002l0.074,0.003l0.076,0.006l0.081,0.008l0.086,0.013l0.095,0.019l0.098,0.026l0.071,0.025l0.067,0.027l0.075,0.037l0.044,0.025l0.076,0.049l0.009,0.006l0.084,0.067l0.041,0.036l0.074,0.078l0.057,0.066l0.051,0.066l0.046,0.065l0.042,0.063l0.037,0.061l0.032,0.058l0.031,0.059l0.046,0.093l0.039,0.084l0.031,0.069l0.027,0.057l0.009,0.019l0.009,0.017l0.007,0.014l0.006,0.011l0.005,0.007l0.028,0.009l0.132,0.044l0.156,0.052l0.087,0.03l0.089,0.031l0.091,0.035l0.095,0.038l0.093,0.041l0.058,0.029l0.056,0.03l0.061,0.035l0.069,0.045l0.078,0.058l0.047,0.042l0.066,0.065l0.06,0.071l0.003,0.004l0.057,0.082l0.048,0.087l0.003,0.006l0.028,0.063l0.024,0.064l0.003,0.007l0.025,0.093l0.002,0.009l0.017,0.096l0.008,0.061l0.004,0.091l-0.001,0.07l-0.001,0.033l0.01,0.018l0.04,0.07l0.042,0.073l0.044,0.074l0.045,0.076l0.047,0.076l0.047,0.075l0.048,0.074l0.047,0.073l0.047,0.07l0.047,0.066l0.044,0.063l0.029,0.039l0.008,0.007l0.015,0.013l0.019,0.015l0.021,0.016l0.061,0.046l0.07,0.05l0.167,0.117l0.096,0.069l0.097,0.074l0.055,0.043l0.054,0.045l0.054,0.048l0.056,0.051l0.057,0.057l0.058,0.061l0.058,0.068l0.058,0.076l0.057,0.084l0.056,0.094l0.046,0.096l0.028,0.067l0.016,0.045l0.034,0.099l0.03,0.085l0.032,0.084l0.033,0.085l0.034,0.085l0.035,0.084l0.037,0.085l0.038,0.085l0.039,0.085l0.04,0.085l0.042,0.086l0.042,0.085l0.044,0.086l0.044,0.086l0.046,0.086l0.046,0.085l0.097,0.175l0.099,0.174l0.103,0.176l0.105,0.177l0.108,0.178l0.109,0.18l0.226,0.366l0.228,0.371l0.116,0.191l0.115,0.192l0.115,0.195l0.114,0.198l0.112,0.199l0.057,0.103l0.055,0.102l0.055,0.104l0.054,0.104l0.054,0.105l0.053,0.106l0.053,0.106l0.051,0.108l0.051,0.109l0.049,0.11l0.049,0.111l0.048,0.112l0.047,0.113l0.045,0.114l0.045,0.115l0.043,0.116l0.042,0.118l0.041,0.122l0.03,0.094l0.028,0.099l0.026,0.098l0.023,0.097l0.02,0.098l0.019,0.097l0.016,0.097l0.015,0.096l0.014,0.096l0.012,0.096l0.01,0.095l0.01,0.094l0.009,0.094l0.007,0.095l0.014,0.182l0.011,0.18l0.009,0.176l0.017,0.333l0.008,0.156l0.01,0.146l0.011,0.138l0.005,0.061l0.007,0.06l0.015,0.132l0.018,0.132l0.02,0.133l0.021,0.132l0.023,0.134l0.025,0.133l0.026,0.134l0.028,0.135l0.029,0.135l0.03,0.136l0.031,0.137l0.033,0.136l0.067,0.278l0.07,0.28l0.071,0.283l0.071,0.287l0.07,0.289l0.035,0.148l0.034,0.148l0.034,0.149l0.032,0.151l0.032,0.151l0.03,0.153l0.029,0.154l0.027,0.155l0.025,0.157l0.024,0.16l0.012,0.091l0.011,0.092l0.008,0.091l0.007,0.089l0.006,0.089l0.004,0.087l0.003,0.087l0.002,0.087l0.002,0.163l0,0.162l-0.002,0.156l-0.003,0.152l-0.002,0.146l-0.001,0.141l0.001,0.139l0.001,0.063l0.002,0.065l0.002,0.063l0.003,0.061l0.004,0.06l0.005,0.058l0.005,0.057l0.006,0.055l0.008,0.054l0.009,0.061l0.023,0.141l0.022,0.15l0.02,0.149l0.019,0.149l0.017,0.149l0.015,0.148l0.014,0.148l0.012,0.148l0.011,0.148l0.01,0.148l0.008,0.147l0.008,0.147l0.006,0.146l0.006,0.147l0.004,0.146l0.004,0.147l0.005,0.289l0.003,0.289l0.001,0.288l0,0.286l-0.003,0.568l-0.001,0.283l-0.001,0.266l0.001,0.022l0.003,0.048l0.014,0.181l0.018,0.234l0.009,0.133l0.008,0.137l0.007,0.14l0.004,0.139l0.001,0.074l-0.001,0.071l-0.001,0.073l-0.003,0.073l-0.005,0.075l-0.007,0.079l-0.012,0.084l-0.017,0.093l-0.024,0.096l-0.022,0.07l-0.026,0.068l-0.035,0.076l-0.025,0.045l-0.05,0.08l-0.006,0.009l-0.035,0.047l-0.036,0.045l-0.007,0.007l-0.08,0.082l-0.019,0.017l-0.07,0.058l-0.053,0.04l-0.088,0.056l-0.086,0.046l-0.081,0.037l-0.077,0.029l-0.074,0.024l-0.069,0.019l-0.065,0.016l-0.062,0.012l-0.058,0.01l-0.06,0.009l-0.096,0.011l-0.093,0.008l-0.082,0.006l-0.073,0.004l-0.061,0.003l-0.048,0.004l-0.032,0.003l-0.003,0l-0.081,0.027l-0.122,0.038l-0.122,0.036l-0.123,0.035l-0.124,0.034l-0.124,0.034l-0.247,0.065l-0.493,0.126l-0.244,0.063l-0.119,0.032l-0.119,0.032l-0.117,0.033l-0.115,0.033l-0.114,0.033l-0.111,0.035l-0.109,0.035l-0.107,0.035l-0.103,0.037l-0.1,0.037l-0.097,0.038l-0.094,0.039l-0.09,0.039l-0.088,0.042l-0.039,0.019l-0.04,0.02l-0.039,0.02l-0.038,0.021l-0.037,0.021l-0.035,0.02l-0.035,0.021l-0.04,0.026l-0.097,0.061l-0.105,0.063l-0.106,0.061l-0.105,0.059l-0.105,0.057l-0.106,0.055l-0.105,0.053l-0.105,0.052l-0.105,0.05l-0.105,0.049l-0.104,0.047l-0.105,0.047l-0.204,0.088l-0.203,0.086l-0.395,0.164l-0.192,0.08l-0.188,0.079l-0.183,0.08l-0.088,0.04l-0.087,0.039l-0.086,0.041l-0.084,0.04l-0.083,0.041l-0.082,0.042l-0.479,0.249l-0.464,0.243l-0.23,0.119l-0.23,0.119l-0.231,0.117l-0.233,0.116l-0.236,0.116l-0.239,0.113l-0.123,0.058l-0.123,0.056l-0.125,0.057l-0.127,0.056l-0.128,0.056l-0.13,0.055l-0.132,0.056l-0.134,0.055l-0.137,0.055l-0.138,0.055l-0.142,0.055l-0.145,0.055l-0.152,0.056l-0.154,0.054l-0.153,0.052l-0.153,0.05l-0.152,0.048l-0.152,0.046l-0.151,0.044l-0.15,0.043l-0.15,0.042l-0.15,0.041l-0.295,0.077l-0.294,0.075l-0.316,0.079l-0.073,0.015l-0.09,0.01l-0.098,0.003l-0.04,-0.001l-0.079,0.07l-0.09,0.078l-0.093,0.078l-0.096,0.079l-0.099,0.08l-0.102,0.08l-0.105,0.08l-0.108,0.079l-0.111,0.079l-0.113,0.079l-0.116,0.077l-0.118,0.076l-0.12,0.075l-0.123,0.073l-0.125,0.07l-0.127,0.069l-0.126,0.064l-0.068,0.033l-0.066,0.031l-0.066,0.03l-0.066,0.029l-0.029,0.081l-0.05,0.1l-0.061,0.095l-0.071,0.086l-0.08,0.079l-0.089,0.069l-0.095,0.058l-0.102,0.048l-0.106,0.035l-0.11,0.024l-0.111,0.011l-0.113,-0.001l-0.111,-0.014l-0.109,-0.026l-0.105,-0.038l-0.101,-0.05l-0.094,-0.061l-0.087,-0.071l-0.078,-0.08l-0.069,-0.089l-0.049,-0.08l-0.029,-0.015l-0.092,-0.064l-0.085,-0.073l-0.076,-0.082l-0.066,-0.091l-0.056,-0.097l-0.045,-0.103l-0.033,-0.107l-0.02,-0.11l-0.008,-0.112l0.004,-0.112l0.017,-0.111l0.029,-0.108l0.042,-0.105l0.052,-0.099l0.037,-0.054l-0.004,-0.017l-0.053,-0.229l-0.055,-0.227l-0.059,-0.228l-0.061,-0.228l-0.063,-0.229l-0.066,-0.228l-0.067,-0.228l-0.07,-0.229l-0.071,-0.228l-0.073,-0.228l-0.074,-0.228l-0.075,-0.227l-0.076,-0.227l-0.077,-0.227l-0.078,-0.225l-0.157,-0.451l-0.157,-0.447l-0.157,-0.443l-0.154,-0.439l-0.151,-0.434l-0.073,-0.216l-0.076,-0.226l-0.022,-0.071l-0.02,-0.081l-0.015,-0.079l-0.012,-0.076l-0.008,-0.072l-0.005,-0.07l-0.003,-0.066l-0.001,-0.064l0.001,-0.06l0.003,-0.062l0.006,-0.101l0.009,-0.096l0.01,-0.086l0.016,-0.144l0.005,-0.054l0.004,-0.048l0.001,-0.013l0,-0.013l0,-0.009l0,-0.004l-0.038,-0.194l-0.041,-0.213l-0.08,-0.431l-0.041,-0.215l-0.042,-0.215l-0.043,-0.212l-0.046,-0.21l-0.023,-0.101l-0.023,-0.102l-0.025,-0.1l-0.025,-0.098l-0.025,-0.096l-0.026,-0.095l-0.027,-0.092l-0.027,-0.09l-0.028,-0.087l-0.029,-0.084l-0.029,-0.082l-0.03,-0.078l-0.03,-0.075l-0.03,-0.072l-0.031,-0.067l-0.036,-0.075l-0.021,-0.042l-0.026,-0.057l-0.043,-0.101l-0.04,-0.104l-0.035,-0.103l-0.031,-0.102l-0.028,-0.1l-0.025,-0.099l-0.022,-0.097l-0.02,-0.096l-0.017,-0.093l-0.016,-0.092l-0.015,-0.092l-0.025,-0.17l-0.022,-0.165l-0.021,-0.155l-0.021,-0.147l-0.01,-0.066l-0.011,-0.064l-0.011,-0.061l-0.012,-0.058l-0.011,-0.053l-0.012,-0.05l-0.013,-0.046l-0.012,-0.041l-0.012,-0.037l-0.013,-0.032l-0.014,-0.033l-0.003,-0.008l-0.016,-0.033l-0.036,-0.078l-0.036,-0.099l-0.028,-0.094l-0.022,-0.089l-0.016,-0.084l-0.012,-0.08l-0.008,-0.076l-0.005,-0.071l-0.004,-0.067l-0.001,-0.067l-0.001,-0.111l0.002,-0.102l0.002,-0.087l0.001,-0.066l-0.03,-0.047l-0.036,-0.065l-0.031,-0.065l-0.027,-0.062l-0.023,-0.061l-0.019,-0.059l-0.017,-0.057l-0.013,-0.056l-0.013,-0.06l-0.016,-0.095l-0.011,-0.096l-0.006,-0.092l-0.003,-0.087l-0.001,-0.083l0.002,-0.08l0.003,-0.076l0.005,-0.077l0.011,-0.136l0.012,-0.13l0.011,-0.117l0.009,-0.106l0.004,-0.043l0.002,-0.04l0.001,-0.034l0.001,-0.028l0,-0.009l-0.022,-0.066l-0.038,-0.126l-0.035,-0.125l-0.034,-0.125l-0.03,-0.125l-0.029,-0.124l-0.026,-0.125l-0.024,-0.124l-0.022,-0.123l-0.02,-0.124l-0.018,-0.123l-0.017,-0.122l-0.015,-0.123l-0.013,-0.122l-0.012,-0.122l-0.01,-0.122l-0.009,-0.122l-0.008,-0.121l-0.006,-0.122l-0.006,-0.122l-0.005,-0.121l-0.004,-0.123l-0.006,-0.242l-0.003,-0.244l-0.001,-0.247l-0.001,-0.498l0.001,-0.255l0.002,-0.256l0.004,-0.258l0.006,-0.259l0.008,-0.26l0.011,-0.26l0.012,-0.261l0.015,-0.262l0.018,-0.263l0.02,-0.262l0.023,-0.264l0.026,-0.261l0.015,-0.133l0.015,-0.132l0.016,-0.132l0.016,-0.132l0.018,-0.131l0.019,-0.132l0.019,-0.132l0.02,-0.131l0.022,-0.132l0.022,-0.131l0.023,-0.131l0.024,-0.132l0.025,-0.131l0.027,-0.131l0.027,-0.13l0.028,-0.131l0.03,-0.13l0.03,-0.131l0.032,-0.13l0.033,-0.129l0.034,-0.13l0.035,-0.129l0.037,-0.129l0.037,-0.129l0.039,-0.129l0.04,-0.128l0.042,-0.128l0.043,-0.127l0.044,-0.127l0.045,-0.127l0.047,-0.127l0.048,-0.126l0.05,-0.125l0.051,-0.125l0.053,-0.125l0.054,-0.124l0.055,-0.124l0.057,-0.123l0.059,-0.123l0.054,-0.109l0.003,-0.007l0.002,-0.004l0.002,-0.008l0.003,-0.011l0.003,-0.014l0.004,-0.017l0.004,-0.021l0.003,-0.02l0.009,-0.06l0.009,-0.067l0.009,-0.077l0.01,-0.086l0.013,-0.096l0.015,-0.102l0.01,-0.059l0.012,-0.058l0.012,-0.061l0.015,-0.063l0.018,-0.066l0.02,-0.068l0.023,-0.069l0.027,-0.072l0.031,-0.073l0.032,-0.068l0.037,-0.072l0.035,-0.065l0.035,-0.064l0.036,-0.063l0.036,-0.061l0.038,-0.06l0.037,-0.059l0.039,-0.058l0.038,-0.057l0.041,-0.058l0.077,-0.105l0.08,-0.104l0.081,-0.099l0.08,-0.096l0.081,-0.092l0.081,-0.088l0.08,-0.086l0.079,-0.082l0.078,-0.081l0.164,-0.164l0.068,-0.064l0.082,-0.065l0.081,-0.057l0.08,-0.049l0.078,-0.043l0.076,-0.037l0.074,-0.033l0.073,-0.029l0.07,-0.025l0.069,-0.022l0.067,-0.02l0.066,-0.019l0.064,-0.016l0.066,-0.015l0.117,-0.025l0.115,-0.022l0.11,-0.018l0.192,-0.031l0.083,-0.013l0.069,-0.012l0.058,-0.011l0.016,-0.004l0.017,-0.004l0.145,-0.036l0.149,-0.04l0.151,-0.041l0.152,-0.042l0.313,-0.087l0.32,-0.09l0.164,-0.045l0.167,-0.045l0.169,-0.045l0.172,-0.043l0.175,-0.043l0.178,-0.042l0.181,-0.04l0.173,-0.036l0.063,-0.014l0.053,-0.012l0.054,-0.015l0.055,-0.016l0.056,-0.019l0.058,-0.02l0.059,-0.021l0.06,-0.024l0.062,-0.025l0.064,-0.026l0.065,-0.029l0.065,-0.029l0.14,-0.064l0.145,-0.068l0.152,-0.071l0.159,-0.075l0.164,-0.074l0.089,-0.038l0.088,-0.038l0.091,-0.037l0.094,-0.037l0.095,-0.035l0.098,-0.035l0.101,-0.034l0.102,-0.032l0.106,-0.03l0.11,-0.029l0.099,-0.023l0.101,-0.02l0.1,-0.017l0.099,-0.014l0.099,-0.011l0.097,-0.009l0.097,-0.007l0.096,-0.004l0.095,-0.004l0.094,-0.001l0.093,0l0.093,0.001Zm-0.167,1.999l-0.063,0.001l-0.062,0.002l-0.058,0.003l-0.057,0.004l-0.053,0.005l-0.051,0.005l-0.047,0.007l-0.044,0.008l-0.041,0.008l-0.04,0.009l-0.06,0.016l-0.062,0.018l-0.063,0.019l-0.064,0.021l-0.064,0.023l-0.064,0.024l-0.066,0.026l-0.066,0.027l-0.067,0.028l-0.067,0.029l-0.141,0.064l-0.144,0.067l-0.149,0.071l-0.155,0.072l-0.158,0.073l-0.084,0.037l-0.085,0.037l-0.087,0.037l-0.089,0.035l-0.09,0.036l-0.093,0.034l-0.095,0.033l-0.098,0.031l-0.1,0.03l-0.102,0.028l-0.105,0.025l-0.097,0.021l-0.167,0.035l-0.156,0.034l-0.156,0.037l-0.156,0.038l-0.155,0.039l-0.156,0.041l-0.156,0.042l-0.155,0.043l-0.316,0.089l-0.316,0.088l-0.161,0.045l-0.162,0.043l-0.163,0.044l-0.168,0.042l-0.053,0.013l-0.058,0.013l-0.101,0.019l-0.1,0.017l-0.095,0.015l-0.183,0.029l-0.082,0.014l-0.076,0.015l-0.073,0.015l-0.027,0.006l-0.028,0.007l-0.024,0.007l-0.021,0.006l-0.008,0.003l-0.079,0.08l-0.066,0.067l-0.064,0.067l-0.062,0.067l-0.06,0.066l-0.057,0.065l-0.056,0.065l-0.052,0.065l-0.051,0.065l-0.05,0.069l-0.021,0.03l-0.023,0.033l-0.022,0.034l-0.021,0.033l-0.021,0.034l-0.02,0.034l-0.02,0.035l-0.02,0.035l-0.018,0.035l-0.016,0.03l-0.001,0.003l-0.002,0.008l-0.003,0.01l-0.003,0.014l-0.004,0.018l-0.004,0.02l-0.003,0.02l-0.009,0.061l-0.009,0.066l-0.009,0.077l-0.011,0.087l-0.012,0.097l-0.015,0.101l-0.011,0.06l-0.011,0.059l-0.013,0.061l-0.015,0.063l-0.017,0.065l-0.021,0.068l-0.023,0.07l-0.027,0.072l-0.031,0.073l-0.029,0.061l-0.056,0.113l-0.048,0.101l-0.047,0.102l-0.046,0.102l-0.045,0.104l-0.044,0.103l-0.042,0.105l-0.042,0.105l-0.04,0.106l-0.04,0.106l-0.038,0.107l-0.038,0.108l-0.036,0.108l-0.035,0.109l-0.035,0.109l-0.033,0.11l-0.032,0.111l-0.032,0.111l-0.03,0.112l-0.029,0.112l-0.029,0.113l-0.028,0.113l-0.026,0.113l-0.026,0.115l-0.025,0.114l-0.024,0.115l-0.023,0.116l-0.022,0.116l-0.022,0.116l-0.02,0.117l-0.02,0.117l-0.019,0.117l-0.018,0.118l-0.018,0.118l-0.016,0.118l-0.016,0.119l-0.015,0.119l-0.015,0.119l-0.014,0.12l-0.012,0.118l-0.024,0.242l-0.022,0.241l-0.018,0.242l-0.017,0.243l-0.014,0.243l-0.011,0.243l-0.01,0.244l-0.007,0.243l-0.006,0.244l-0.004,0.244l-0.002,0.244l-0.001,0.244l0.001,0.489l0.001,0.233l0.003,0.228l0.005,0.223l0.004,0.107l0.004,0.107l0.005,0.106l0.006,0.104l0.006,0.103l0.008,0.101l0.008,0.101l0.01,0.099l0.011,0.098l0.011,0.097l0.013,0.096l0.014,0.095l0.016,0.094l0.016,0.094l0.018,0.093l0.02,0.092l0.021,0.092l0.022,0.092l0.025,0.091l0.025,0.091l0.028,0.091l0.034,0.107l0.014,0.045l0.018,0.066l0.02,0.099l0.014,0.101l0.008,0.093l0.004,0.087l0.001,0.082l-0.001,0.079l-0.004,0.075l-0.004,0.072l-0.005,0.072l-0.011,0.129l-0.012,0.123l-0.011,0.112l-0.008,0.103l-0.002,0.041l-0.002,0.039l0,0.007l0.003,0.005l0.034,0.055l0.035,0.063l0.045,0.096l0.038,0.102l0.028,0.096l0.021,0.09l0.015,0.084l0.011,0.079l0.007,0.073l0.004,0.069l0.003,0.068l0.001,0.112l-0.001,0.104l-0.002,0.09l-0.002,0.076l0,0.066l0.001,0.02l0.001,0.013l0.018,0.039l0.041,0.098l0.038,0.102l0.034,0.101l0.03,0.099l0.026,0.098l0.024,0.097l0.02,0.094l0.019,0.093l0.016,0.091l0.015,0.09l0.014,0.089l0.024,0.166l0.022,0.162l0.02,0.153l0.022,0.147l0.01,0.066l0.012,0.065l0.011,0.062l0.013,0.059l0.012,0.056l0.013,0.052l0.014,0.049l0.014,0.045l0.014,0.041l0.014,0.038l0.017,0.038l0.005,0.011l0.012,0.026l0.048,0.099l0.051,0.112l0.048,0.112l0.045,0.113l0.043,0.114l0.041,0.115l0.039,0.115l0.037,0.116l0.036,0.117l0.034,0.116l0.032,0.117l0.031,0.118l0.03,0.117l0.029,0.118l0.027,0.117l0.027,0.119l0.05,0.231l0.047,0.231l0.045,0.228l0.043,0.224l0.08,0.431l0.039,0.204l0.041,0.209l0.011,0.064l0.01,0.074l0.006,0.072l0.004,0.068l0.002,0.065l0,0.061l-0.002,0.059l-0.003,0.06l-0.007,0.099l-0.009,0.095l-0.018,0.155l-0.007,0.064l-0.005,0.053l-0.003,0.046l0,0.011l0,0.007l0.055,0.165l0.071,0.207l0.147,0.425l0.152,0.434l0.157,0.442l0.158,0.451l0.16,0.457l0.08,0.232l0.079,0.234l0.079,0.235l0.079,0.237l0.077,0.238l0.077,0.24l0.075,0.241l0.073,0.242l0.072,0.243l0.071,0.245l0.068,0.246l0.066,0.247l0.064,0.248l0.031,0.129l0.019,-0.011l0.089,-0.055l0.089,-0.057l0.088,-0.059l0.088,-0.061l0.086,-0.062l0.085,-0.063l0.084,-0.063l0.081,-0.064l0.079,-0.063l0.077,-0.063l0.074,-0.063l0.07,-0.061l0.068,-0.06l0.063,-0.057l0.06,-0.056l0.055,-0.053l0.056,-0.055l0.069,-0.062l0.006,-0.005l0.068,-0.051l0.072,-0.045l0.008,-0.005l0.059,-0.03l0.061,-0.027l0.009,-0.004l0.097,-0.034l0.049,-0.014l0.082,-0.016l0.08,-0.011l0.097,-0.007l0.088,0l0.073,0.003l0.061,0.005l0.055,0.005l0.042,0.005l0.147,-0.037l0.283,-0.072l0.28,-0.074l0.137,-0.037l0.136,-0.038l0.136,-0.039l0.135,-0.039l0.134,-0.041l0.133,-0.042l0.131,-0.043l0.131,-0.044l0.13,-0.046l0.131,-0.048l0.129,-0.049l0.128,-0.049l0.125,-0.05l0.123,-0.05l0.122,-0.05l0.119,-0.05l0.118,-0.05l0.116,-0.051l0.115,-0.051l0.113,-0.051l0.113,-0.052l0.11,-0.051l0.223,-0.106l0.219,-0.107l0.219,-0.109l0.22,-0.112l0.221,-0.114l0.225,-0.117l0.463,-0.242l0.488,-0.254l0.102,-0.052l0.103,-0.051l0.104,-0.05l0.103,-0.048l0.103,-0.047l0.104,-0.047l0.202,-0.088l0.202,-0.085l0.199,-0.083l0.39,-0.161l0.188,-0.08l0.186,-0.081l0.089,-0.039l0.089,-0.041l0.088,-0.041l0.086,-0.041l0.085,-0.042l0.083,-0.042l0.082,-0.042l0.08,-0.044l0.078,-0.043l0.077,-0.045l0.075,-0.045l0.081,-0.051l0.055,-0.034l0.062,-0.038l0.063,-0.037l0.064,-0.036l0.064,-0.035l0.064,-0.033l0.064,-0.033l0.067,-0.033l0.127,-0.059l0.131,-0.058l0.132,-0.054l0.132,-0.052l0.132,-0.049l0.133,-0.047l0.132,-0.044l0.133,-0.043l0.133,-0.041l0.132,-0.039l0.132,-0.038l0.131,-0.037l0.13,-0.035l0.13,-0.034l0.254,-0.066l0.49,-0.126l0.233,-0.061l0.111,-0.03l0.109,-0.03l0.105,-0.03l0.101,-0.03l0.098,-0.03l0.11,-0.036l0.057,-0.017l0.068,-0.018l0.063,-0.013l0.065,-0.011l0.048,-0.007l-0.006,-0.081l-0.017,-0.227l-0.015,-0.197l-0.006,-0.095l-0.003,-0.084l0.001,-0.301l0.001,-0.285l0.003,-0.565l0,-0.278l-0.001,-0.277l-0.002,-0.274l-0.005,-0.274l-0.004,-0.133l-0.004,-0.135l-0.005,-0.134l-0.006,-0.133l-0.007,-0.132l-0.007,-0.132l-0.009,-0.131l-0.01,-0.131l-0.011,-0.13l-0.012,-0.129l-0.013,-0.128l-0.014,-0.128l-0.016,-0.127l-0.017,-0.127l-0.019,-0.125l-0.021,-0.134l-0.014,-0.086l-0.012,-0.093l-0.011,-0.093l-0.009,-0.091l-0.007,-0.09l-0.006,-0.089l-0.004,-0.088l-0.003,-0.087l-0.003,-0.085l-0.001,-0.086l-0.001,-0.163l0.001,-0.159l0.003,-0.155l0.002,-0.149l0.002,-0.144l0,-0.139l-0.001,-0.135l-0.002,-0.062l-0.002,-0.063l-0.003,-0.061l-0.004,-0.059l-0.004,-0.058l-0.006,-0.057l-0.006,-0.055l-0.007,-0.055l-0.02,-0.13l-0.021,-0.132l-0.023,-0.132l-0.025,-0.134l-0.027,-0.133l-0.028,-0.135l-0.029,-0.134l-0.03,-0.136l-0.031,-0.136l-0.033,-0.137l-0.067,-0.277l-0.07,-0.28l-0.071,-0.284l-0.071,-0.287l-0.071,-0.29l-0.035,-0.148l-0.034,-0.149l-0.033,-0.15l-0.032,-0.151l-0.032,-0.152l-0.03,-0.153l-0.028,-0.155l-0.028,-0.156l-0.025,-0.158l-0.024,-0.159l-0.021,-0.16l-0.019,-0.161l-0.009,-0.085l-0.008,-0.087l-0.013,-0.166l-0.011,-0.17l-0.009,-0.169l-0.017,-0.336l-0.009,-0.165l-0.01,-0.161l-0.012,-0.16l-0.006,-0.075l-0.007,-0.076l-0.007,-0.074l-0.008,-0.071l-0.009,-0.07l-0.01,-0.068l-0.01,-0.065l-0.01,-0.063l-0.012,-0.06l-0.012,-0.057l-0.012,-0.054l-0.013,-0.05l-0.014,-0.046l-0.015,-0.047l-0.03,-0.089l-0.033,-0.093l-0.034,-0.092l-0.035,-0.091l-0.037,-0.092l-0.038,-0.091l-0.039,-0.091l-0.04,-0.091l-0.041,-0.091l-0.042,-0.09l-0.043,-0.091l-0.044,-0.09l-0.045,-0.09l-0.047,-0.091l-0.046,-0.09l-0.048,-0.09l-0.049,-0.09l-0.049,-0.088l-0.102,-0.182l-0.104,-0.18l-0.106,-0.18l-0.108,-0.181l-0.11,-0.181l-0.225,-0.366l-0.227,-0.368l-0.115,-0.187l-0.113,-0.189l-0.114,-0.19l-0.112,-0.192l-0.11,-0.194l-0.108,-0.195l-0.055,-0.101l-0.053,-0.1l-0.052,-0.101l-0.052,-0.101l-0.05,-0.103l-0.05,-0.103l-0.049,-0.103l-0.049,-0.105l-0.047,-0.106l-0.046,-0.106l-0.045,-0.108l-0.044,-0.108l-0.042,-0.109l-0.041,-0.11l-0.037,-0.104l-0.009,-0.007l-0.02,-0.016l-0.059,-0.045l-0.067,-0.048l-0.162,-0.113l-0.09,-0.065l-0.094,-0.069l-0.053,-0.041l-0.051,-0.042l-0.053,-0.045l-0.055,-0.048l-0.056,-0.053l-0.057,-0.059l-0.058,-0.066l-0.052,-0.065l-0.069,-0.093l-0.062,-0.087l-0.061,-0.088l-0.06,-0.09l-0.06,-0.091l-0.058,-0.091l-0.058,-0.092l-0.056,-0.091l-0.055,-0.091l-0.053,-0.09l-0.051,-0.088l-0.049,-0.087l-0.047,-0.084l-0.044,-0.082l-0.042,-0.08l-0.036,-0.07l-0.028,-0.06l-0.024,-0.063l-0.002,-0.004l-0.007,-0.025l-0.136,-0.045l-0.076,-0.026l-0.079,-0.029l-0.08,-0.033l-0.061,-0.029l-0.062,-0.032l-0.089,-0.054l-0.082,-0.054l-0.078,-0.058l-0.074,-0.06l-0.07,-0.063l-0.065,-0.064l-0.06,-0.065l-0.056,-0.066l-0.051,-0.066l-0.046,-0.065l-0.042,-0.063l-0.038,-0.062l-0.034,-0.059l-0.031,-0.057l-0.027,-0.053l-0.026,-0.052l-0.01,-0.022l-0.042,0.002l-0.105,0.007l-0.106,0.009l-0.207,0.018l-0.177,0.016l-0.087,0.007l-0.083,0.003l-0.103,-0.001l-0.086,-0.001l-0.085,-0.003l-0.086,-0.004l-0.165,-0.008l-0.166,-0.011l-0.322,-0.023l-0.156,-0.01l-0.152,-0.009l-0.149,-0.007l-0.069,-0.002l-0.07,-0.002l-0.067,0l-0.066,0Zm-10.174,17.414l0.005,0.006l-0.006,-0.006l0.001,0Z"/><path d="M14.094,9.217l0.119,0.004l0.119,0.007l0.121,0.011l0.117,0.014l0.066,0.009l0.061,0.01l0.062,0.011l0.062,0.013l0.062,0.013l0.067,0.016l0.079,0.022l0.083,0.025l0.08,0.029l0.078,0.032l0.077,0.035l0.073,0.038l0.07,0.04l0.067,0.042l0.063,0.044l0.058,0.044l0.053,0.044l0.049,0.043l0.043,0.041l0.041,0.041l0.056,0.06l0.034,0.038l0.067,0.021l0.073,0.021l0.074,0.021l0.075,0.02l0.076,0.019l0.077,0.019l0.077,0.018l0.163,0.036l0.164,0.035l0.169,0.034l0.348,0.069l0.181,0.036l0.183,0.038l0.185,0.041l0.097,0.023l0.095,0.023l0.096,0.025l0.097,0.026l0.098,0.027l0.098,0.029l0.099,0.03l0.084,0.027l0.003,0.001l0.006,0.001l0.01,0.001l0.014,0.001l0.018,0.001l0.021,0l0.021,0l0.063,-0.001l0.069,-0.003l0.079,-0.005l0.091,-0.004l0.101,-0.004l0.106,-0.001l0.065,0.001l0.064,0.003l0.068,0.005l0.072,0.007l0.076,0.011l0.08,0.016l0.085,0.02l0.089,0.027l0.092,0.035l0.08,0.036l0.099,0.05l0.09,0.048l0.095,0.051l0.098,0.057l0.102,0.061l0.1,0.065l0.056,0.037l0.053,0.037l0.053,0.039l0.054,0.041l0.054,0.043l0.054,0.045l0.054,0.048l0.054,0.051l0.054,0.054l0.054,0.059l0.054,0.064l0.054,0.069l0.052,0.075l0.051,0.083l0.048,0.091l0.044,0.1l0.038,0.11l0.027,0.107l0.014,0.075l0.008,0.065l0.005,0.067l0.002,0.042l-0.004,0.116l-0.017,0.115l-0.031,0.112l-0.043,0.108l-0.055,0.103l-0.067,0.095l-0.078,0.086l-0.087,0.077l-0.095,0.067l-0.103,0.055l-0.108,0.042l-0.112,0.03l-0.116,0.017l-0.116,0.003l-0.116,-0.011l-0.113,-0.023l-0.111,-0.037l-0.105,-0.05l-0.099,-0.061l-0.091,-0.072l-0.082,-0.083l-0.072,-0.091l-0.061,-0.099l-0.048,-0.106l-0.021,-0.064l-0.018,-0.013l-0.021,-0.016l-0.024,-0.016l-0.022,-0.015l-0.058,-0.038l-0.059,-0.035l-0.062,-0.035l-0.062,-0.035l-0.04,-0.021l-0.033,0.001l-0.061,0.002l-0.075,0.004l-0.087,0.004l-0.1,0.005l-0.106,0.002l-0.063,0l-0.063,-0.001l-0.065,-0.003l-0.069,-0.005l-0.071,-0.006l-0.075,-0.01l-0.078,-0.013l-0.08,-0.017l-0.083,-0.021l-0.069,-0.021l-0.086,-0.028l-0.072,-0.022l-0.072,-0.021l-0.074,-0.021l-0.075,-0.02l-0.076,-0.019l-0.077,-0.019l-0.076,-0.018l-0.162,-0.036l-0.164,-0.034l-0.169,-0.034l-0.172,-0.034l-0.177,-0.035l-0.18,-0.036l-0.184,-0.039l-0.185,-0.041l-0.097,-0.023l-0.096,-0.023l-0.097,-0.025l-0.097,-0.026l-0.098,-0.027l-0.099,-0.029l-0.099,-0.031l-0.107,-0.035l-0.074,-0.026l-0.079,-0.033l-0.076,-0.037l-0.074,-0.04l-0.069,-0.042l-0.065,-0.044l-0.059,-0.045l-0.055,-0.045l-0.048,-0.043l-0.047,-0.045l-0.063,-0.065l-0.05,-0.054l-0.028,-0.031l-0.015,-0.004l-0.024,-0.005l-0.026,-0.005l-0.026,-0.005l-0.027,-0.005l-0.024,-0.003l-0.062,-0.007l-0.062,-0.006l-0.064,-0.004l-0.068,-0.002l-0.07,0l-0.072,0.001l-0.076,0.002l-0.077,0.004l-0.079,0.006l-0.082,0.007l-0.083,0.008l-0.085,0.01l-0.086,0.011l-0.088,0.011l-0.088,0.013l-0.183,0.027l-0.185,0.03l-0.188,0.03l-0.191,0.03l-0.19,0.028l-0.099,0.013l-0.098,0.012l-0.099,0.012l-0.097,0.009l-0.184,0.016l-0.181,0.015l-0.352,0.025l-0.346,0.025l-0.169,0.013l-0.167,0.013l-0.165,0.014l-0.163,0.016l-0.161,0.017l-0.159,0.019l-0.159,0.021l-0.076,0.011l-0.077,0.012l-0.077,0.012l-0.076,0.014l-0.076,0.014l-0.073,0.014l-0.023,0.005l-0.022,0.005l-0.022,0.005l-0.02,0.006l-0.054,0.016l-0.053,0.018l-0.056,0.021l-0.06,0.023l-0.061,0.027l-0.065,0.029l-0.066,0.033l-0.068,0.034l-0.07,0.037l-0.071,0.039l-0.072,0.042l-0.074,0.043l-0.074,0.045l-0.075,0.046l-0.076,0.048l-0.075,0.048l-0.155,0.103l-0.155,0.104l-0.155,0.105l-0.155,0.106l-0.155,0.105l-0.154,0.103l-0.15,0.098l-0.225,0.142l-0.222,0.138l-0.44,0.277l-0.217,0.137l-0.216,0.139l-0.213,0.14l-0.104,0.07l-0.105,0.07l-0.103,0.071l-0.103,0.072l-0.102,0.073l-0.1,0.072l-0.1,0.074l-0.098,0.074l-0.098,0.076l-0.096,0.076l-0.095,0.077l-0.094,0.077l-0.093,0.079l-0.091,0.08l-0.09,0.081l-0.089,0.082l-0.088,0.084l-0.081,0.08l-0.018,0.018l-0.015,0.017l-0.016,0.019l-0.017,0.023l-0.018,0.025l-0.019,0.028l-0.02,0.03l-0.02,0.034l-0.021,0.035l-0.02,0.038l-0.021,0.04l-0.021,0.042l-0.021,0.045l-0.021,0.045l-0.021,0.048l-0.021,0.049l-0.021,0.05l-0.019,0.05l-0.042,0.109l-0.039,0.11l-0.039,0.112l-0.038,0.114l-0.038,0.116l-0.074,0.225l-0.037,0.111l-0.033,0.106l-0.033,0.107l-0.032,0.107l-0.03,0.107l-0.03,0.107l-0.028,0.107l-0.027,0.107l-0.027,0.108l-0.025,0.108l-0.024,0.108l-0.023,0.108l-0.023,0.108l-0.021,0.108l-0.02,0.109l-0.019,0.109l-0.019,0.109l-0.017,0.109l-0.016,0.109l-0.016,0.11l-0.014,0.11l-0.014,0.11l-0.012,0.11l-0.012,0.11l-0.011,0.11l-0.009,0.111l-0.009,0.111l-0.008,0.111l-0.008,0.111l-0.006,0.111l-0.005,0.112l-0.005,0.112l-0.003,0.112l-0.003,0.112l-0.002,0.112l-0.001,0.113l-0.001,0.112l0.001,0.113l0.001,0.113l0.002,0.113l0.003,0.114l0.004,0.113l0.004,0.114l0.005,0.114l0.006,0.114l0.007,0.114l0.008,0.115l0.008,0.114l0.009,0.115l0.01,0.113l0.022,0.232l0.024,0.231l0.027,0.232l0.03,0.232l0.033,0.233l0.035,0.233l0.039,0.242l0.019,0.117l0.016,0.125l0.015,0.125l0.012,0.124l0.009,0.124l0.008,0.125l0.006,0.123l0.005,0.124l0.002,0.123l0.002,0.122l0,0.122l-0.001,0.122l-0.002,0.121l-0.003,0.122l-0.007,0.236l-0.01,0.235l-0.011,0.231l-0.023,0.449l-0.009,0.215l-0.008,0.21l-0.003,0.101l-0.002,0.099l-0.002,0.097l0,0.092l0,0.026l0.001,0.024l0.001,0.023l0.002,0.025l0.003,0.025l0.002,0.022l0.009,0.06l0.01,0.059l0.012,0.064l0.015,0.071l0.017,0.077l0.037,0.17l0.02,0.098l0.018,0.104l0.017,0.107l0.008,0.063l0.006,0.06l0.005,0.063l0.004,0.064l0.003,0.067l0.001,0.062l-0.001,0.217l-0.002,0.209l-0.001,0.205l-0.001,0.2l0.001,0.197l0.002,0.095l0.002,0.094l0.003,0.093l0.004,0.091l0.005,0.09l0.005,0.088l0.007,0.086l0.008,0.084l0.009,0.082l0.01,0.08l0.012,0.079l0.013,0.076l0.014,0.074l0.015,0.072l0.017,0.069l0.018,0.067l0.019,0.066l0.021,0.062l0.023,0.065l0.01,0.026l0.012,0.029l0.012,0.028l0.013,0.028l0.013,0.028l0.024,0.05l0.032,0.072l0.033,0.092l0.024,0.088l0.017,0.083l0.011,0.077l0.006,0.071l0.003,0.066l0.001,0.068l-0.005,0.098l-0.008,0.092l-0.01,0.078l-0.009,0.063l-0.008,0.054l0.051,0.151l0.095,0.28l0.095,0.277l0.096,0.275l0.193,0.549l0.193,0.544l0.193,0.543l0.191,0.542l0.095,0.273l0.094,0.274l0.094,0.275l0.095,0.282l0.03,0.095l0.029,0.1l0.026,0.1l0.024,0.099l0.022,0.097l0.02,0.097l0.018,0.096l0.017,0.094l0.015,0.093l0.015,0.094l0.026,0.178l0.049,0.342l0.024,0.162l0.012,0.076l0.012,0.074l0.013,0.072l0.013,0.069l0.014,0.066l0.014,0.064l0.014,0.059l0.015,0.057l0.016,0.052l0.015,0.049l0.016,0.045l0.016,0.04l0.016,0.037l0.021,0.044l0.089,0.181l0.093,0.193l0.092,0.193l0.091,0.194l0.089,0.193l0.089,0.194l0.175,0.385l0.175,0.385l0.087,0.19l0.088,0.19l0.088,0.188l0.089,0.187l0.09,0.185l0.101,0.205l0.037,0.083l0.036,0.102l0.027,0.098l0.02,0.094l0.013,0.089l0.007,0.083l0.004,0.079l0,0.073l-0.002,0.069l-0.004,0.064l-0.005,0.061l-0.007,0.06l-0.013,0.098l-0.013,0.091l-0.012,0.077l-0.01,0.064l-0.006,0.051l0.024,0.067l0.022,0.059l0.022,0.055l0.049,0.118l0.027,0.066l0.029,0.075l0.032,0.083l0.033,0.093l0.035,0.102l0.035,0.112l0.037,0.125l0.039,0.139l0.042,0.156l0.043,0.17l0.022,0.114l0.009,0.116l-0.005,0.116l-0.018,0.115l-0.031,0.112l-0.045,0.108l-0.056,0.101l-0.068,0.095l-0.078,0.086l-0.088,0.076l-0.096,0.066l-0.103,0.054l-0.109,0.041l-0.112,0.029l-0.116,0.015l-0.116,0.002l-0.116,-0.011l-0.113,-0.025l-0.11,-0.038l-0.105,-0.05l-0.098,-0.063l-0.09,-0.073l-0.082,-0.083l-0.071,-0.092l-0.06,-0.1l-0.047,-0.106l-0.036,-0.111l-0.04,-0.159l-0.036,-0.133l-0.031,-0.112l-0.028,-0.094l-0.025,-0.078l-0.022,-0.065l-0.02,-0.057l-0.02,-0.051l-0.02,-0.051l-0.022,-0.055l-0.053,-0.128l-0.032,-0.08l-0.034,-0.089l-0.036,-0.099l-0.042,-0.124l-0.025,-0.085l-0.021,-0.095l-0.014,-0.09l-0.009,-0.085l-0.004,-0.079l-0.001,-0.075l0.001,-0.07l0.004,-0.065l0.005,-0.061l0.006,-0.061l0.013,-0.1l0.014,-0.091l0.012,-0.079l0.01,-0.065l0.004,-0.029l-0.035,-0.07l-0.096,-0.2l-0.095,-0.198l-0.093,-0.198l-0.091,-0.197l-0.09,-0.197l-0.176,-0.387l-0.174,-0.383l-0.086,-0.188l-0.086,-0.186l-0.086,-0.184l-0.086,-0.182l-0.087,-0.179l-0.092,-0.187l-0.044,-0.092l-0.044,-0.103l-0.04,-0.103l-0.036,-0.102l-0.033,-0.101l-0.029,-0.101l-0.027,-0.099l-0.024,-0.099l-0.022,-0.098l-0.02,-0.097l-0.018,-0.095l-0.017,-0.095l-0.015,-0.094l-0.015,-0.093l-0.027,-0.179l-0.048,-0.343l-0.024,-0.162l-0.012,-0.076l-0.013,-0.074l-0.012,-0.073l-0.014,-0.069l-0.013,-0.066l-0.014,-0.064l-0.015,-0.06l-0.015,-0.056l-0.015,-0.053l-0.017,-0.055l-0.088,-0.262l-0.092,-0.267l-0.092,-0.268l-0.093,-0.267l-0.189,-0.537l-0.192,-0.54l-0.194,-0.547l-0.195,-0.554l-0.098,-0.281l-0.097,-0.284l-0.098,-0.287l-0.103,-0.307l-0.021,-0.072l-0.019,-0.085l-0.012,-0.079l-0.007,-0.072l-0.004,-0.068l0,-0.061l0.001,-0.057l0.003,-0.057l0.008,-0.086l0.01,-0.079l0.013,-0.088l-0.02,-0.047l-0.024,-0.059l-0.024,-0.063l-0.042,-0.115l-0.039,-0.119l-0.035,-0.119l-0.032,-0.118l-0.029,-0.119l-0.025,-0.118l-0.022,-0.118l-0.02,-0.117l-0.017,-0.117l-0.015,-0.116l-0.013,-0.116l-0.011,-0.115l-0.009,-0.115l-0.007,-0.113l-0.006,-0.113l-0.005,-0.113l-0.003,-0.111l-0.003,-0.111l-0.001,-0.111l-0.002,-0.216l0.001,-0.213l0.001,-0.21l0.002,-0.205l0.001,-0.196l-0.001,-0.021l0,-0.017l-0.001,-0.018l-0.002,-0.02l-0.002,-0.021l-0.003,-0.018l-0.008,-0.055l-0.01,-0.056l-0.013,-0.062l-0.033,-0.153l-0.018,-0.084l-0.02,-0.094l-0.02,-0.102l-0.018,-0.109l-0.016,-0.113l-0.008,-0.065l-0.006,-0.063l-0.005,-0.065l-0.004,-0.067l-0.002,-0.068l-0.001,-0.066l0,-0.118l0.002,-0.114l0.002,-0.114l0.004,-0.116l0.008,-0.227l0.011,-0.227l0.022,-0.451l0.011,-0.223l0.009,-0.22l0.007,-0.218l0.003,-0.105l0.001,-0.106l0.001,-0.104l0,-0.102l-0.001,-0.101l-0.003,-0.1l-0.003,-0.098l-0.005,-0.096l-0.006,-0.094l-0.007,-0.092l-0.008,-0.089l-0.01,-0.088l-0.012,-0.085l-0.014,-0.09l-0.04,-0.246l-0.038,-0.254l-0.036,-0.254l-0.033,-0.254l-0.029,-0.254l-0.027,-0.254l-0.024,-0.253l-0.011,-0.129l-0.01,-0.127l-0.009,-0.127l-0.009,-0.128l-0.007,-0.127l-0.007,-0.127l-0.006,-0.128l-0.005,-0.127l-0.004,-0.127l-0.003,-0.127l-0.003,-0.128l-0.001,-0.127l-0.001,-0.127l0.001,-0.128l0.001,-0.127l0.002,-0.127l0.003,-0.128l0.005,-0.127l0.005,-0.127l0.006,-0.127l0.007,-0.128l0.008,-0.127l0.009,-0.127l0.011,-0.127l0.011,-0.127l0.012,-0.127l0.014,-0.127l0.014,-0.127l0.016,-0.127l0.017,-0.127l0.017,-0.127l0.019,-0.126l0.021,-0.127l0.021,-0.127l0.022,-0.126l0.024,-0.127l0.024,-0.126l0.026,-0.126l0.027,-0.127l0.029,-0.126l0.029,-0.126l0.031,-0.126l0.032,-0.126l0.033,-0.125l0.035,-0.126l0.036,-0.125l0.037,-0.126l0.038,-0.125l0.04,-0.125l0.039,-0.121l0.075,-0.226l0.04,-0.121l0.043,-0.128l0.046,-0.134l0.049,-0.137l0.053,-0.139l0.029,-0.074l0.03,-0.072l0.031,-0.073l0.032,-0.073l0.034,-0.074l0.035,-0.074l0.037,-0.075l0.039,-0.074l0.041,-0.075l0.043,-0.074l0.045,-0.075l0.048,-0.074l0.051,-0.075l0.053,-0.073l0.057,-0.074l0.06,-0.072l0.064,-0.072l0.063,-0.066l0.113,-0.111l0.109,-0.104l0.111,-0.102l0.111,-0.1l0.112,-0.098l0.113,-0.096l0.113,-0.094l0.114,-0.092l0.114,-0.09l0.115,-0.089l0.114,-0.086l0.116,-0.086l0.115,-0.083l0.115,-0.082l0.116,-0.081l0.115,-0.079l0.116,-0.079l0.116,-0.077l0.228,-0.15l0.229,-0.147l0.227,-0.144l0.445,-0.279l0.219,-0.137l0.212,-0.134l0.129,-0.084l0.136,-0.091l0.146,-0.099l0.154,-0.105l0.161,-0.11l0.168,-0.113l0.173,-0.113l0.09,-0.059l0.091,-0.057l0.092,-0.057l0.094,-0.056l0.095,-0.056l0.096,-0.055l0.098,-0.054l0.099,-0.053l0.101,-0.051l0.103,-0.05l0.104,-0.048l0.106,-0.045l0.108,-0.044l0.11,-0.041l0.113,-0.037l0.11,-0.033l0.063,-0.017l0.059,-0.015l0.06,-0.014l0.058,-0.012l0.098,-0.02l0.096,-0.017l0.096,-0.017l0.095,-0.015l0.095,-0.015l0.096,-0.014l0.185,-0.025l0.186,-0.022l0.184,-0.019l0.182,-0.017l0.181,-0.016l0.178,-0.014l0.177,-0.013l0.348,-0.025l0.343,-0.026l0.168,-0.013l0.165,-0.014l0.072,-0.007l0.073,-0.009l0.076,-0.009l0.078,-0.011l0.169,-0.025l0.178,-0.027l0.186,-0.03l0.195,-0.031l0.199,-0.03l0.105,-0.015l0.105,-0.014l0.106,-0.013l0.108,-0.012l0.109,-0.011l0.111,-0.01l0.112,-0.008l0.113,-0.006l0.114,-0.004l0.116,-0.002l0.117,0.001Zm5.431,3.309l0.002,0.035l0.003,0.018l-0.006,-0.063l0.001,0.01Z"/><path d="M14.333,14.221l0.029,0.002l0.028,0.003l0.028,0.005l0.028,0.007l0.027,0.008l0.027,0.01l0.026,0.012l0.026,0.012l0.025,0.015l0.024,0.015l0.023,0.017l0.021,0.019l0.021,0.019l0.02,0.021l0.019,0.022l0.017,0.022l0.016,0.024l0.014,0.025l0.013,0.025l0.012,0.026l0.01,0.027l0.008,0.027l0.007,0.028l0.006,0.028l0.004,0.028l0.002,0.029l0,0.028l-0.001,0.122l-0.003,0.128l-0.005,0.127l-0.006,0.127l-0.012,0.252l-0.006,0.125l-0.006,0.123l-0.003,0.122l-0.003,0.119l0,0.117l0.002,0.115l0.002,0.054l0.002,0.054l0.004,0.054l0.004,0.052l0.005,0.052l0.006,0.05l0.006,0.049l0.008,0.047l0.005,0.03l0.006,0.031l0.007,0.031l0.008,0.031l0.019,0.071l0.022,0.074l0.049,0.161l0.026,0.089l0.026,0.098l0.013,0.063l0.01,0.065l0.007,0.063l0.003,0.059l0.002,0.057l-0.001,0.055l-0.001,0.053l-0.002,0.051l-0.006,0.092l-0.006,0.084l-0.004,0.073l-0.001,0.028l0,0.025l0,0.045l0.001,0.046l0.002,0.048l0.003,0.048l0.008,0.102l0.009,0.105l0.009,0.108l0.009,0.112l0.006,0.114l0.002,0.061l0.001,0.055l-0.001,0.029l-0.002,0.028l-0.004,0.029l-0.005,0.028l-0.007,0.027l-0.009,0.028l-0.01,0.026l-0.011,0.026l-0.013,0.026l-0.015,0.024l-0.016,0.024l-0.017,0.023l-0.018,0.022l-0.02,0.021l-0.021,0.019l-0.022,0.018l-0.023,0.017l-0.023,0.016l-0.025,0.014l-0.026,0.013l-0.026,0.012l-0.027,0.01l-0.027,0.008l-0.028,0.007l-0.028,0.005l-0.028,0.004l-0.029,0.002l-0.028,0l-0.029,-0.001l-0.028,-0.003l-0.028,-0.005l-0.028,-0.006l-0.028,-0.008l-0.027,-0.009l-0.026,-0.011l-0.026,-0.012l-0.025,-0.014l-0.024,-0.015l-0.023,-0.017l-0.023,-0.018l-0.021,-0.019l-0.02,-0.02l-0.019,-0.021l-0.018,-0.023l-0.016,-0.023l-0.015,-0.024l-0.014,-0.025l-0.012,-0.026l-0.01,-0.027l-0.01,-0.027l-0.007,-0.027l-0.006,-0.028l-0.005,-0.028l-0.002,-0.029l-0.001,-0.028l-0.001,-0.045l-0.001,-0.04l-0.005,-0.091l-0.008,-0.097l-0.009,-0.104l-0.009,-0.111l-0.009,-0.116l-0.003,-0.062l-0.003,-0.062l-0.002,-0.064l-0.001,-0.066l0.001,-0.049l0.002,-0.049l0.005,-0.09l0.006,-0.085l0.005,-0.079l0.001,-0.035l0.001,-0.032l0,-0.03l0,-0.025l-0.001,-0.021l-0.002,-0.017l-0.002,-0.01l-0.002,-0.01l-0.017,-0.064l-0.021,-0.072l-0.048,-0.16l-0.026,-0.089l-0.025,-0.092l-0.013,-0.051l-0.011,-0.051l-0.011,-0.052l-0.01,-0.054l-0.01,-0.069l-0.01,-0.069l-0.008,-0.069l-0.006,-0.068l-0.006,-0.069l-0.004,-0.069l-0.003,-0.068l-0.003,-0.07l-0.002,-0.134l0,-0.135l0.003,-0.134l0.004,-0.133l0.006,-0.131l0.006,-0.129l0.013,-0.251l0.005,-0.12l0.004,-0.118l0.003,-0.113l0.001,-0.114l0.002,-0.029l0.002,-0.028l0.005,-0.029l0.006,-0.028l0.007,-0.027l0.009,-0.027l0.011,-0.027l0.012,-0.026l0.013,-0.025l0.015,-0.024l0.017,-0.023l0.017,-0.023l0.019,-0.021l0.02,-0.021l0.022,-0.019l0.022,-0.018l0.023,-0.016l0.024,-0.015l0.025,-0.014l0.026,-0.012l0.026,-0.011l0.027,-0.01l0.028,-0.007l0.028,-0.007l0.028,-0.004l0.028,-0.003l0.029,-0.002l0.028,0.001Z"/><path d="M15.859,14.421l0.025,0.001l0.025,0.003l0.025,0.004l0.025,0.006l0.025,0.006l0.024,0.008l0.023,0.009l0.023,0.011l0.023,0.011l0.022,0.013l0.021,0.013l0.021,0.015l0.02,0.016l0.019,0.016l0.018,0.018l0.017,0.019l0.017,0.019l0.015,0.02l0.014,0.021l0.013,0.022l0.012,0.022l0.011,0.023l0.01,0.023l0.008,0.024l0.008,0.025l0.006,0.024l0.005,0.025l0.003,0.025l0.002,0.025l0.001,0.026l0,0.025l-0.002,0.025l-0.002,0.025l-0.005,0.025l-0.005,0.025l-0.007,0.025l-0.007,0.024l-0.009,0.023l-0.011,0.024l-0.011,0.022l-0.013,0.022l-0.013,0.021l-0.015,0.021l-0.016,0.02l-0.017,0.019l-0.017,0.018l-0.019,0.017l-0.019,0.017l-0.02,0.015l-0.021,0.014l-0.022,0.013l-0.022,0.012l-0.023,0.011l-0.024,0.01l-0.023,0.008l-0.025,0.008l-0.024,0.006l-0.025,0.005l-0.025,0.003l-0.025,0.002l-0.026,0.001l-0.087,0.002l-0.083,0.003l-0.086,0.005l-0.087,0.008l-0.09,0.01l-0.091,0.011l-0.093,0.014l-0.094,0.016l-0.095,0.017l-0.097,0.019l-0.098,0.021l-0.098,0.023l-0.099,0.024l-0.1,0.025l-0.1,0.027l-0.101,0.029l-0.1,0.029l-0.101,0.031l-0.1,0.031l-0.1,0.033l-0.1,0.033l-0.1,0.034l-0.098,0.035l-0.098,0.036l-0.097,0.036l-0.095,0.036l-0.19,0.074l-0.182,0.074l-0.179,0.076l-0.024,0.009l-0.024,0.008l-0.024,0.007l-0.025,0.005l-0.025,0.005l-0.025,0.003l-0.026,0.002l-0.025,0l-0.025,-0.001l-0.025,-0.002l-0.026,-0.003l-0.024,-0.005l-0.025,-0.006l-0.024,-0.007l-0.024,-0.008l-0.024,-0.01l-0.023,-0.011l-0.022,-0.011l-0.022,-0.013l-0.021,-0.014l-0.02,-0.016l-0.02,-0.016l-0.018,-0.017l-0.018,-0.018l-0.017,-0.019l-0.016,-0.02l-0.015,-0.02l-0.014,-0.021l-0.012,-0.022l-0.012,-0.023l-0.01,-0.023l-0.01,-0.023l-0.008,-0.024l-0.006,-0.025l-0.006,-0.025l-0.004,-0.025l-0.003,-0.025l-0.002,-0.025l-0.001,-0.025l0.001,-0.026l0.002,-0.025l0.004,-0.025l0.004,-0.025l0.006,-0.024l0.007,-0.025l0.009,-0.024l0.009,-0.023l0.011,-0.023l0.012,-0.023l0.013,-0.021l0.014,-0.021l0.015,-0.021l0.016,-0.019l0.017,-0.019l0.018,-0.018l0.019,-0.017l0.02,-0.015l0.02,-0.015l0.022,-0.014l0.022,-0.013l0.022,-0.011l0.023,-0.011l0.185,-0.078l0.195,-0.079l0.2,-0.078l0.104,-0.04l0.104,-0.038l0.105,-0.038l0.106,-0.038l0.107,-0.037l0.108,-0.036l0.109,-0.035l0.11,-0.035l0.11,-0.033l0.111,-0.033l0.111,-0.031l0.111,-0.03l0.112,-0.028l0.111,-0.027l0.112,-0.026l0.112,-0.024l0.111,-0.022l0.112,-0.021l0.111,-0.018l0.111,-0.016l0.11,-0.014l0.11,-0.012l0.109,-0.01l0.109,-0.007l0.108,-0.004l0.101,-0.001l0.025,0Z"/></svg>