<?xml version="1.0" encoding="UTF-8" standalone="no"?><!DOCTYPE svg PUBLIC "-//W3C//DTD SVG 1.1//EN" "http://www.w3.org/Graphics/SVG/1.1/DTD/svg11.dtd"><svg width="100%" height="100%" viewBox="0 0 60 60" version="1.1" xmlns="http://www.w3.org/2000/svg" xmlns:xlink="http://www.w3.org/1999/xlink" xml:space="preserve" style="fill-rule:evenodd;clip-rule:evenodd;stroke-linecap:round;stroke-linejoin:round;stroke-miterlimit:1.5;"><g><path d="M19.51,52.413c0,0 -16.509,-7.513 -4.656,-31.537l32.278,0c0,0 12.17,18.944 -4.233,31.326l-23.389,0.211Z" style="fill:none;stroke:#000;stroke-width:0.69px;"/><path d="M49.354,18.086c0,-0.479 -0.389,-0.868 -0.868,-0.868l-34.839,0c-0.479,0 -0.868,0.389 -0.868,0.868l0,1.735c0,0.479 0.389,0.868 0.868,0.868l34.839,0c0.479,0 0.868,-0.389 0.868,-0.868l0,-1.735Z" style="fill:none;stroke:#000;stroke-width:0.69px;"/><path d="M43.597,53.645c0,-0.479 -0.389,-0.868 -0.868,-0.868l-22.648,0c-0.479,0 -0.867,0.389 -0.867,0.868l0,1.735c0,0.479 0.388,0.868 0.867,0.868l22.648,0c0.479,0 0.868,-0.389 0.868,-0.868l0,-1.735Z" style="fill:none;stroke:#000;stroke-width:0.69px;"/><path d="M14.981,17.179l32.087,0c0,0 -14.901,-22.182 -32.087,0Z" style="fill:none;stroke:#000;stroke-width:0.69px;"/><path d="M28.164,7.602c-0.051,-0.215 -0.077,-0.439 -0.077,-0.67c0,-1.615 1.311,-2.926 2.926,-2.926c1.615,0 2.926,1.311 2.926,2.926c0,0.24 -0.029,0.473 -0.084,0.696c-1.775,-0.374 -3.682,-0.435 -5.691,-0.026Z" style="fill:none;stroke:#000;stroke-width:0.69px;"/><path d="M32.634,27.574l0.212,0l-0.092,3.81l7.923,0l0,3.492l-8.006,0l-0.143,5.953l0,4.313l-0.103,0l-0.003,0.106l-3.704,0l0,-4.524l-0.137,-5.742l-8.011,0l0,-3.492l7.927,0l-0.096,-4.022l4.233,0l0,0.106Z" style="fill:none;stroke:#000;stroke-width:0.69px;"/></g></svg>